<?xml version="1.0" standalone="no"?>
<!DOCTYPE svg PUBLIC "-//W3C//DTD SVG 20010904//EN"
 "http://www.w3.org/TR/2001/REC-SVG-20010904/DTD/svg10.dtd">
<svg version="1.0" xmlns="http://www.w3.org/2000/svg"
 width="498.000000pt" height="473.000000pt" viewBox="0 0 498.000000 473.000000"
 preserveAspectRatio="xMidYMid meet">

<g transform="translate(0.000000,473.000000) scale(0.100000,-0.100000)"
fill="#000000" stroke="none">
<path d="M2388 4311 c-82 -27 -139 -63 -192 -122 -53 -59 -82 -138 -71 -197 3
-21 6 -50 6 -67 0 -53 31 -167 56 -203 13 -20 21 -43 18 -52 -3 -10 -1 -30 5
-46 12 -32 118 -194 135 -207 5 -4 24 -5 40 -2 17 3 49 8 73 12 41 6 42 5 42
-25 l0 -30 -47 14 c-87 26 -171 13 -216 -33 -33 -36 -57 -92 -57 -138 0 -20
-9 -54 -21 -76 -11 -22 -33 -90 -49 -151 -20 -75 -55 -165 -110 -282 -87 -182
-103 -210 -90 -153 l8 36 -28 -20 c-43 -32 -122 -127 -252 -302 -123 -165
-215 -277 -226 -277 -4 0 -5 25 -4 55 4 50 2 56 -21 66 -83 38 -309 -177 -376
-356 -49 -131 -8 -179 103 -120 l48 25 18 -23 c10 -13 37 -29 60 -36 23 -7 48
-15 55 -17 7 -3 23 13 38 38 26 44 132 164 260 296 42 43 118 104 187 149 150
100 288 211 380 309 73 78 73 79 45 29 -16 -27 -39 -67 -52 -87 -28 -45 -28
-47 -3 -126 39 -123 25 -193 -79 -399 -28 -57 -49 -103 -46 -103 2 0 42 26 87
58 46 32 101 69 123 82 l40 23 -40 -41 c-22 -23 -125 -115 -230 -204 -254
-218 -448 -447 -608 -718 -105 -177 -108 -183 -64 -141 20 19 35 37 34 40 -1
3 97 103 218 221 120 118 206 199 190 178 -17 -20 -75 -89 -131 -155 -55 -65
-142 -172 -192 -238 l-92 -120 326 -3 326 -2 147 102 c214 149 292 204 399
287 111 84 97 63 -26 -42 -68 -57 -82 -74 -77 -91 3 -12 20 -74 37 -138 l31
-118 267 0 266 0 2 38 c1 20 6 145 12 277 6 132 16 278 22 325 39 290 -18 495
-186 665 -43 44 -85 90 -93 102 -8 13 -17 58 -20 102 -7 94 7 141 68 234 21
31 57 92 80 135 23 42 54 95 69 117 14 22 52 84 84 138 86 142 85 127 -5 -60
-74 -156 -71 -140 -43 -245 41 -157 141 -336 381 -681 39 -57 88 -137 109
-178 20 -41 56 -103 79 -139 45 -67 115 -217 115 -244 0 -8 5 -18 11 -21 20
-13 99 6 129 32 l30 25 53 -56 c82 -87 117 -73 117 46 0 87 -22 166 -76 276
-100 205 -234 268 -234 111 0 -27 -4 -49 -9 -49 -23 0 -105 197 -181 429 -77
239 -122 355 -152 394 -12 16 -13 8 -11 -60 2 -43 1 -73 -2 -68 -7 17 -73 403
-90 525 -9 63 -23 150 -31 193 -9 44 -13 89 -10 101 8 32 -12 95 -41 135 -33
43 -109 91 -145 91 -16 0 -78 25 -138 55 -96 48 -112 60 -135 100 -23 39 -26
53 -22 107 2 35 16 108 31 163 22 81 27 116 24 185 -4 77 -10 100 -46 173 -2
5 8 7 23 5 79 -9 96 -138 46 -332 -40 -151 -40 -195 -1 -262 36 -64 80 -92
165 -105 91 -15 154 1 195 47 42 48 39 60 -19 68 -60 8 -98 36 -106 79 -3 18
3 77 15 132 57 271 43 386 -58 477 -37 33 -46 37 -124 43 -66 6 -92 4 -122 -9
-28 -12 -43 -13 -57 -5 -11 6 -25 8 -32 6 -7 -2 -30 5 -52 16 -58 30 -209 34
-287 8z m-828 -2185 c0 -9 -156 -204 -209 -262 -45 -49 -50 -53 -32 -21 l23
37 -28 -10 c-16 -6 -34 -16 -41 -22 -7 -6 -13 -8 -13 -5 0 3 45 42 99 87 55
45 120 109 146 141 42 54 55 67 55 55z m1954 -356 c37 -64 79 -160 73 -166 -8
-8 -66 88 -87 143 -11 30 -27 69 -36 86 -14 30 -14 31 1 12 9 -11 31 -45 49
-75z"/>
<path d="M2028 3025 c-37 -30 -74 -65 -83 -78 -35 -55 -27 -133 19 -176 l23
-22 41 93 c45 103 75 200 70 224 -2 11 -21 0 -70 -41z"/>
<path d="M1057 2160 c-77 -48 -176 -202 -165 -256 2 -11 12 -20 23 -22 16 -2
28 12 54 64 22 42 62 95 108 141 40 41 73 81 73 89 0 23 -43 16 -93 -16z"/>
<path d="M1227 2159 c-109 -30 -277 -245 -277 -355 0 -57 23 -65 43 -14 43
110 178 263 295 335 6 4 -11 34 -21 38 -7 2 -25 0 -40 -4z"/>
<path d="M1605 1851 c-88 -40 -228 -197 -279 -312 -47 -110 -42 -169 16 -169
32 0 33 1 34 45 1 64 60 177 135 259 61 66 147 126 182 126 23 0 31 23 17 49
-14 26 -51 27 -105 2z"/>
<path d="M3910 1765 c-11 -13 -9 -20 12 -43 75 -79 159 -259 174 -371 7 -56
15 -62 38 -29 47 67 -24 294 -124 399 -51 54 -81 67 -100 44z"/>
<path d="M1635 1744 c-132 -87 -259 -289 -226 -360 14 -32 31 -30 31 4 0 41
53 145 102 198 66 73 115 104 160 104 39 0 39 0 36 38 -3 33 -6 37 -33 40 -20
2 -44 -6 -70 -24z"/>
<path d="M4050 1755 c-9 -11 -7 -21 13 -47 49 -65 86 -155 111 -270 4 -19 13
-28 25 -28 74 0 6 254 -90 334 -35 30 -42 31 -59 11z"/>
<path d="M1645 1642 c-103 -63 -217 -267 -161 -288 22 -9 88 26 82 43 -3 8 7
40 24 71 21 41 43 67 80 92 48 34 69 67 55 89 -10 17 -47 13 -80 -7z"/>
<path d="M3434 1602 c-6 -4 -15 -16 -21 -26 -9 -17 -5 -23 27 -45 52 -35 95
-91 135 -176 43 -92 58 -159 54 -246 -4 -67 -2 -72 19 -80 61 -23 83 85 46
230 -30 116 -122 277 -182 320 -34 23 -64 33 -78 23z"/>
<path d="M1669 1536 c-32 -24 -52 -50 -67 -86 l-21 -51 23 -11 c21 -9 30 -6
61 18 20 15 48 50 62 77 24 49 24 50 6 69 -19 18 -20 18 -64 -16z"/>
<path d="M3360 1494 c-14 -35 -15 -33 29 -71 71 -60 141 -236 128 -318 -4 -24
0 -34 14 -43 46 -29 72 -3 71 73 -1 112 -70 273 -148 345 -51 47 -80 51 -94
14z"/>
<path d="M3312 1418 c-7 -7 -12 -30 -12 -51 0 -38 1 -39 28 -34 25 5 33 0 64
-42 25 -33 38 -65 46 -106 5 -33 7 -61 4 -63 -4 -1 -14 -7 -22 -12 -13 -9 -12
-12 4 -25 31 -23 55 -19 62 12 17 68 -55 255 -118 308 -34 28 -39 30 -56 13z"/>
<path d="M3312 1312 c-10 -7 -11 -22 -4 -64 11 -69 62 -141 92 -130 25 9 24 9
17 68 -5 33 -18 65 -38 92 -31 42 -43 48 -67 34z"/>
<path d="M1638 623 l-108 -4 0 -44 c0 -33 4 -45 15 -45 13 0 15 -21 15 -130 0
-109 -2 -130 -15 -130 -11 0 -15 -12 -15 -45 l0 -45 110 0 110 0 0 45 c0 33
-4 45 -15 45 -13 0 -15 21 -15 130 0 109 2 130 15 130 11 0 15 12 15 50 0 28
-1 49 -2 48 -2 -1 -51 -4 -110 -5z"/>
<path d="M3274 611 c-46 -21 -69 -63 -68 -124 2 -56 30 -87 119 -132 84 -42
102 -68 51 -73 -19 -2 -32 2 -38 12 -7 12 -25 16 -68 16 l-60 0 0 -54 c0 -52
1 -55 33 -66 52 -19 181 -24 232 -10 79 22 121 99 96 179 -14 49 -35 67 -118
100 -68 28 -90 53 -57 65 9 4 27 0 40 -9 14 -9 46 -15 79 -15 l55 0 0 50 0 49
-52 16 c-72 21 -192 19 -244 -4z"/>
<path d="M3670 608 c-37 -19 -47 -31 -59 -66 -28 -88 11 -152 118 -192 63 -23
87 -42 76 -60 -10 -16 -65 -12 -71 5 -5 11 -22 15 -66 15 l-59 0 3 -57 3 -58
50 -12 c108 -24 228 -10 276 33 25 23 41 86 33 130 -9 48 -52 88 -126 116 -63
24 -84 50 -52 62 9 4 27 0 40 -9 14 -9 46 -15 79 -15 l56 0 -3 47 c-3 42 -7
50 -33 62 -18 9 -69 17 -125 19 -84 3 -100 1 -140 -20z"/>
<path d="M1160 575 c0 -33 4 -45 15 -45 13 0 15 -21 15 -130 0 -126 -1 -130
-21 -130 -19 0 -21 -4 -15 -31 3 -17 6 -38 6 -45 0 -11 26 -14 130 -14 l130 0
0 45 c0 45 0 45 -35 45 l-35 0 0 50 0 50 45 0 c43 0 45 1 45 30 0 29 -2 30
-45 30 l-45 0 0 50 c0 49 1 50 30 50 19 0 30 -5 29 -12 -4 -33 2 -38 46 -38
l45 0 0 70 0 70 -170 0 -170 0 0 -45z"/>
<path d="M1780 555 l0 -65 45 0 c38 0 45 3 45 20 0 13 7 20 20 20 19 0 20 -7
20 -130 0 -123 -1 -130 -20 -130 -17 0 -20 -7 -20 -45 l0 -45 120 0 120 0 0
45 c0 38 -3 45 -20 45 -19 0 -20 7 -20 130 0 123 1 130 20 130 13 0 20 -7 20
-20 0 -17 7 -20 50 -20 l50 0 0 65 0 65 -215 0 -215 0 0 -65z"/>
<path d="M2230 575 c0 -33 4 -45 15 -45 13 0 15 -21 15 -130 0 -109 -2 -130
-15 -130 -11 0 -15 -12 -15 -45 l0 -45 95 0 95 0 0 45 c0 33 -4 45 -15 45 -12
0 -15 16 -15 80 0 44 2 80 5 80 2 0 41 -56 86 -125 l81 -125 79 0 79 0 0 175
c0 168 1 175 20 175 17 0 20 7 20 45 l0 45 -100 0 -100 0 0 -45 c0 -33 4 -45
15 -45 12 0 15 -13 15 -60 0 -33 -2 -60 -5 -60 -2 0 -36 47 -75 105 l-70 105
-105 0 -105 0 0 -45z"/>
<path d="M2780 575 c0 -39 3 -45 21 -45 20 0 20 -4 18 -130 -3 -118 -5 -130
-21 -130 -15 0 -18 -8 -18 -45 l0 -45 195 0 195 0 0 90 0 90 -60 0 -60 0 0
-45 0 -45 -41 0 -40 0 3 53 c3 45 6 52 26 55 17 3 22 10 22 33 0 24 -4 29 -25
29 -23 0 -25 4 -25 45 l0 45 40 0 40 0 0 -40 0 -40 60 0 60 0 0 85 0 85 -195
0 -195 0 0 -45z"/>
</g>
</svg>
