<?xml version="1.0" standalone="no"?>
<!DOCTYPE svg PUBLIC "-//W3C//DTD SVG 20010904//EN"
 "http://www.w3.org/TR/2001/REC-SVG-20010904/DTD/svg10.dtd">
<svg version="1.0" xmlns="http://www.w3.org/2000/svg"
 width="1559.000000pt" height="1134.000000pt" viewBox="0 0 1559.000000 1134.000000"
 preserveAspectRatio="xMidYMid meet">

<g transform="translate(0.000000,1134.000000) scale(0.100000,-0.100000)"
fill="#000000" stroke="none">
<path d="M9610 10037 c-36 -13 -81 -31 -100 -40 -31 -14 -261 -111 -410 -172
-152 -62 -285 -118 -375 -155 -55 -24 -152 -64 -215 -90 -268 -111 -456 -192
-477 -206 -34 -21 -45 -50 -112 -279 -34 -115 -68 -230 -76 -255 -51 -165
-105 -383 -105 -421 0 -25 38 -197 85 -382 84 -333 92 -372 78 -380 -15 -8
-501 69 -598 95 -50 13 -218 22 -190 10 13 -6 3 -9 -35 -8 -30 1 -71 -2 -90
-6 -19 -4 -54 -10 -77 -14 -24 -3 -43 -11 -43 -16 0 -5 -9 -6 -21 -3 -13 4
-27 1 -39 -10 -13 -11 -30 -16 -50 -13 -16 3 -30 1 -30 -4 0 -5 -3 -7 -8 -4
-4 2 -30 0 -57 -5 -63 -13 -72 -14 -172 -30 -45 -7 -80 -15 -78 -18 2 -4 -15
-7 -38 -7 -23 -1 -43 -6 -44 -11 -2 -5 -17 -7 -33 -5 -17 2 -36 -1 -43 -6 -7
-6 -22 -11 -32 -10 -11 0 -45 -5 -75 -11 -30 -7 -71 -14 -90 -17 -19 -3 -44
-8 -55 -12 -11 -3 -24 -6 -30 -7 -5 0 -10 -6 -10 -14 0 -21 -53 -33 -63 -16
-6 12 -14 12 -52 0 -25 -7 -38 -14 -29 -14 8 -1 24 -7 34 -15 19 -14 10 -13
-105 9 -53 10 -104 -15 -128 -62 -11 -21 -79 -195 -152 -388 -73 -192 -177
-466 -231 -608 -55 -142 -99 -262 -99 -268 0 -8 74 28 195 96 22 12 81 44 130
70 50 26 113 60 140 75 182 100 226 120 231 105 3 -8 10 -13 15 -10 4 3 6 12
2 20 -3 9 1 15 10 15 8 0 17 -7 21 -15 3 -8 11 -15 18 -14 9 0 9 2 2 5 -16 7
-5 44 13 44 10 0 13 -6 9 -17 -6 -15 -4 -14 14 2 13 12 17 21 9 25 -6 5 -3 9
9 12 13 4 19 1 18 -10 0 -8 6 -17 14 -19 12 -4 12 -3 1 5 -9 7 -10 12 -2 16 6
4 9 12 6 17 -4 5 -1 9 4 9 18 0 26 -5 24 -12 -2 -5 2 -8 8 -8 6 0 9 9 6 19 -3
13 1 21 14 24 12 3 17 1 13 -5 -4 -6 -1 -8 7 -6 8 3 13 11 12 17 -2 6 4 11 12
11 8 0 15 -4 15 -10 0 -5 5 -10 11 -10 6 0 9 9 6 19 -3 12 1 22 10 25 11 4 13
2 9 -9 -4 -13 -2 -14 15 -5 11 6 16 16 13 22 -4 6 -3 8 4 4 5 -3 13 0 15 6 3
8 6 6 6 -4 1 -26 21 -22 21 3 0 14 5 19 14 16 7 -3 21 4 30 14 16 19 42 17 31
-2 -4 -5 -1 -9 6 -9 6 0 9 8 6 19 -5 22 22 39 33 20 5 -6 9 -2 13 11 4 15 11
21 21 17 9 -4 16 -3 16 2 0 14 39 20 44 7 2 -6 5 -4 5 5 1 8 17 23 38 33 29
14 38 15 45 4 6 -9 8 -8 6 6 -2 15 7 23 37 34 22 8 69 28 104 44 36 17 96 41
135 54 39 13 130 44 201 69 72 25 144 50 160 54 69 20 708 241 740 257 28 13
34 21 29 38 -3 12 1 39 8 61 10 32 20 42 48 52 31 10 37 9 56 -10 12 -12 18
-26 14 -32 -7 -9 0 -67 19 -157 12 -54 -1 -68 -36 -40 -70 56 -64 55 -129 26
-53 -24 -226 -88 -360 -134 -67 -24 -114 -48 -114 -60 0 -6 5 -10 11 -10 6 0
9 -7 5 -15 -3 -9 0 -15 9 -15 18 0 19 -12 3 -28 -9 -9 -7 -12 10 -12 12 0 22
-4 22 -10 0 -5 -9 -10 -20 -10 -11 0 -20 -5 -20 -11 0 -5 8 -9 18 -8 34 3 53
-1 47 -11 -3 -5 -16 -10 -27 -10 -33 0 -16 -9 26 -14 37 -5 93 13 127 42 9 7
26 14 38 15 11 1 21 7 21 15 0 7 4 11 9 7 5 -3 12 -1 15 4 3 5 14 7 25 4 12
-3 24 3 34 17 10 14 16 17 19 9 3 -10 14 -7 40 9 19 12 42 22 51 22 8 0 17 5
19 11 2 5 10 11 18 13 8 1 29 10 47 19 23 12 31 22 27 35 -5 14 -4 15 5 2 9
-13 12 -13 20 -1 5 7 14 10 20 7 6 -4 11 -2 11 5 0 8 6 6 18 -4 10 -10 22 -17
27 -17 11 0 31 -27 52 -68 12 -26 13 -36 4 -41 -6 -4 -9 -15 -5 -24 3 -10 1
-17 -5 -17 -6 0 -11 -7 -11 -15 0 -21 -45 -10 -87 22 -34 25 -42 18 -21 -20
10 -20 10 -21 -6 -8 -9 8 -30 15 -46 16 -22 2 -27 -1 -23 -14 6 -14 3 -13 -14
2 -12 10 -23 14 -26 10 -3 -5 -20 -10 -38 -11 -17 -1 -39 -7 -48 -12 -14 -8
-13 -9 4 -10 19 -1 19 -1 2 -11 -10 -6 -25 -8 -33 -5 -8 3 -14 -1 -14 -11 0
-12 -3 -13 -13 -4 -10 8 -18 6 -33 -7 -20 -18 -38 -22 -49 -10 -4 4 -16 -2
-28 -13 -11 -10 -29 -19 -38 -19 -10 0 -26 -8 -36 -19 -10 -10 -25 -21 -33
-24 -11 -4 -10 -6 4 -6 10 -1 25 7 33 17 14 16 14 16 9 0 -3 -10 -1 -18 4 -18
6 0 10 -5 10 -10 0 -6 -8 -10 -17 -8 -10 2 -19 -4 -21 -14 -2 -11 3 -18 12
-18 9 0 16 -5 16 -11 0 -6 -7 -8 -16 -5 -9 3 -23 6 -32 6 -12 0 -13 3 -4 12 7
7 12 19 12 28 -1 11 -4 10 -12 -5 -6 -11 -20 -30 -31 -42 -21 -23 -11 -33 10
-12 9 9 10 6 6 -11 -4 -14 -2 -21 4 -17 5 3 10 0 10 -8 0 -8 -4 -15 -8 -15 -5
0 -15 -13 -24 -30 -20 -40 -5 -38 29 3 21 24 26 39 22 62 -2 17 -2 24 1 17 2
-6 10 -9 16 -5 7 4 8 0 4 -11 -4 -10 -3 -15 3 -11 21 13 31 -7 11 -22 -12 -8
-19 -19 -15 -24 3 -5 -5 -18 -18 -29 -18 -14 -19 -18 -6 -16 9 1 27 14 39 30
16 20 25 24 33 16 8 -8 8 -13 0 -18 -17 -11 -65 -92 -55 -92 5 0 21 14 35 32
27 36 46 32 28 -6 -9 -21 -9 -23 10 -18 19 5 21 2 15 -28 -6 -28 -5 -31 8 -20
17 14 30 8 23 -12 -7 -17 -5 -34 4 -31 4 2 6 -10 6 -26 -1 -20 -5 -28 -14 -24
-8 3 -14 0 -14 -6 0 -12 19 -15 60 -12 22 2 75 24 120 50 42 24 207 101 217
101 18 0 117 52 125 66 5 6 16 10 27 7 13 -3 20 2 24 17 7 28 -31 142 -45 134
-7 -5 -9 2 -5 18 4 14 3 39 -2 54 -5 16 -12 42 -16 59 -7 30 -6 30 12 10 10
-12 26 -19 35 -17 17 3 17 6 2 34 -9 17 -11 27 -5 24 13 -9 14 -4 1 28 -7 19
-6 25 6 28 11 2 4 19 -26 68 -39 64 -80 157 -80 184 0 9 7 12 20 9 11 -3 20
-9 20 -14 0 -14 61 12 73 32 16 26 40 24 78 -8 32 -27 74 -107 81 -153 2 -20
-2 -26 -27 -30 -16 -3 -44 -3 -62 1 -26 5 -32 3 -38 -15 -16 -49 -10 -101 17
-153 48 -91 50 -93 90 -93 40 0 51 -15 19 -25 -26 -8 -31 -37 -15 -82 7 -21
13 -44 14 -51 0 -8 9 -26 21 -40 11 -14 19 -37 17 -52 -1 -14 1 -30 5 -36 9
-15 -38 -58 -57 -51 -16 6 -66 80 -66 97 0 5 -7 10 -15 10 -10 0 -15 -10 -15
-31 0 -25 -3 -29 -18 -25 -12 4 -70 -25 -168 -82 -241 -143 -319 -187 -326
-184 -5 1 -8 -3 -8 -9 0 -6 -7 -9 -15 -5 -12 4 -14 0 -11 -19 3 -14 0 -28 -6
-31 -7 -4 -8 -2 -4 4 10 17 -19 15 -33 -1 -6 -8 -8 -17 -4 -21 4 -4 0 -4 -10
0 -9 3 -14 11 -10 18 4 6 -1 5 -10 -3 -9 -7 -17 -24 -17 -37 0 -13 -4 -24 -10
-24 -5 0 -10 7 -10 15 0 27 -19 16 -22 -12 -2 -17 -9 -28 -18 -28 -8 0 -21 -6
-28 -12 -16 -16 -32 -17 -32 -2 0 6 -12 2 -27 -9 -16 -11 -82 -49 -149 -85
-66 -37 -135 -80 -153 -97 -17 -17 -36 -28 -41 -25 -6 3 -10 2 -10 -2 0 -8
-26 -23 -110 -61 -116 -52 -167 -75 -362 -166 -42 -19 -105 -47 -140 -62 -35
-14 -123 -53 -196 -86 -92 -42 -148 -61 -180 -63 -52 -2 -301 -88 -317 -109
-11 -14 -92 -54 -122 -59 -69 -13 -93 -20 -93 -26 0 -4 -15 -5 -32 -4 -22 3
-103 -20 -238 -67 -113 -39 -216 -73 -230 -76 -14 -3 -45 -14 -69 -25 -24 -11
-52 -21 -62 -22 -11 -1 -19 -5 -19 -9 0 -4 -4 -8 -10 -8 -15 0 -79 92 -80 115
0 11 -12 50 -26 87 -15 36 -24 73 -21 80 2 7 20 20 38 29 61 30 107 49 118 49
5 0 38 13 73 29 35 17 95 42 133 57 39 14 95 38 125 52 30 14 57 26 60 27 20
4 50 28 50 40 0 8 7 15 15 15 17 0 20 16 6 25 -5 3 -13 1 -16 -5 -5 -8 -11 -7
-21 1 -21 17 -17 29 9 30 16 0 11 4 -18 15 -36 14 -43 14 -70 0 -16 -8 -97
-45 -178 -81 -82 -36 -156 -70 -165 -75 -53 -29 -196 -90 -211 -90 -27 0 -87
105 -96 167 l-7 52 43 26 c23 15 56 32 73 37 17 6 38 16 46 23 8 7 26 16 40
20 14 4 105 48 203 98 169 85 178 91 172 114 -3 14 -1 31 5 38 8 10 6 13 -7
11 -10 0 -18 6 -19 14 -3 41 -4 42 -31 35 -16 -3 -62 -26 -103 -49 -41 -24
-133 -74 -205 -111 -266 -138 -295 -157 -295 -191 0 -11 -18 1 -56 35 -30 28
-61 51 -69 51 -7 0 -73 -27 -146 -60 -74 -33 -139 -60 -146 -60 -17 0 -78 60
-96 95 -15 28 -109 231 -175 375 -105 233 -211 445 -234 470 -25 26 -55 41
-325 161 -236 105 -268 119 -418 189 -201 94 -231 97 -360 39 -22 -10 -95 -43
-163 -73 -68 -31 -125 -56 -127 -56 -3 0 -28 -11 -57 -24 -29 -14 -107 -48
-173 -77 -66 -28 -147 -64 -180 -79 -131 -59 -293 -130 -299 -130 -3 0 -33
-13 -68 -29 -157 -72 -207 -94 -263 -116 -90 -34 -229 -102 -260 -127 -27 -21
-60 -84 -95 -183 -10 -27 -32 -87 -49 -132 -16 -46 -28 -83 -26 -83 2 0 -5
-21 -16 -46 -12 -25 -19 -55 -16 -65 3 -10 1 -17 -3 -14 -5 3 -11 -8 -15 -25
-4 -16 -10 -30 -15 -30 -10 0 2 33 -167 -440 -102 -283 -145 -419 -146 -450 0
-34 19 -94 83 -250 46 -113 118 -290 160 -395 146 -358 252 -620 317 -780 76
-187 102 -240 137 -281 14 -16 49 -59 78 -95 29 -36 174 -211 322 -388 l269
-322 156 -76 c174 -84 210 -101 501 -238 284 -134 319 -147 365 -134 20 6 255
112 523 236 268 124 633 293 812 375 179 83 348 161 376 174 27 13 60 35 73
48 15 16 48 105 101 277 43 140 110 358 150 484 39 127 74 253 77 280 5 47 -2
70 -90 290 -53 132 -136 332 -186 445 -50 113 -91 213 -91 223 0 13 42 38 158
94 110 54 150 78 135 80 -12 2 -35 -3 -52 -11 -16 -9 -37 -16 -46 -16 -10 0
-31 -6 -48 -14 -107 -47 -156 -48 -201 -2 -19 18 -37 43 -41 55 -3 11 -10 21
-14 21 -5 0 -14 14 -21 30 -7 17 -16 30 -21 30 -4 0 -14 18 -20 40 -11 36 -10
42 7 59 37 34 257 141 291 141 28 0 74 -42 98 -91 27 -52 35 -58 55 -34 18 22
32 18 18 -4 -10 -16 -9 -23 3 -38 23 -26 41 -78 38 -105 -6 -45 16 -30 32 22
9 29 23 57 33 62 31 17 189 68 212 68 18 0 74 -78 308 -430 157 -236 296 -436
308 -444 13 -8 122 -58 243 -111 202 -89 416 -183 605 -266 121 -53 158 -51
330 14 306 116 1176 460 1196 472 28 18 154 195 191 270 17 33 47 103 67 156
34 88 40 97 66 101 16 2 27 1 25 -2 -2 -4 12 -12 31 -18 34 -10 35 -10 20 7
-17 18 -23 76 -7 67 5 -4 12 0 14 6 4 10 6 10 6 0 1 -10 6 -10 23 -1 17 9 24
9 33 -5 14 -18 30 -22 19 -4 -9 14 -15 186 -8 211 3 10 10 14 17 10 7 -4 6 1
-2 10 -16 20 -6 36 11 19 17 -17 28 -15 22 3 -4 9 0 15 10 15 9 0 16 -5 16
-11 0 -5 5 -7 10 -4 6 4 8 11 5 16 -4 5 -1 9 4 9 6 0 11 -3 11 -7 0 -5 14 -8
30 -9 17 -1 30 3 30 9 0 5 9 7 20 4 13 -3 20 0 20 9 0 10 7 13 25 8 14 -3 24
-2 23 2 -4 12 8 15 29 7 15 -6 14 -8 -7 -13 -26 -6 -34 -30 -12 -37 6 -3 12 2
12 10 0 10 8 13 26 9 19 -3 25 -1 20 7 -6 8 -1 10 17 6 19 -5 26 -2 29 10 3
15 5 15 23 0 11 -8 16 -15 10 -14 -10 2 -26 -3 -70 -21 -11 -5 -28 -11 -38
-14 -18 -6 -15 -26 4 -26 6 0 7 5 3 11 -5 9 1 10 21 5 22 -6 26 -4 22 8 -8 19
-3 20 26 4 22 -11 22 -12 -6 -23 -25 -10 -26 -13 -13 -24 14 -11 16 -11 16 4
0 13 6 16 25 11 21 -5 25 -3 25 14 0 12 -4 19 -9 15 -10 -6 -26 13 -18 21 9 9
35 -8 40 -27 6 -23 27 -26 27 -3 0 11 6 14 21 9 12 -4 24 -2 29 4 3 7 15 9 24
5 14 -5 6 -11 -31 -26 -85 -35 -95 -41 -81 -50 8 -4 14 -2 16 7 2 11 11 13 28
9 15 -4 24 -2 24 5 0 7 9 9 25 5 20 -5 24 -3 19 10 -7 18 4 20 26 6 13 -9 13
-11 0 -20 -8 -5 -19 -11 -24 -13 -11 -4 1 -27 15 -27 5 0 9 7 9 15 0 12 7 14
26 9 19 -5 25 -4 20 5 -8 13 13 15 33 2 9 -6 0 -13 -33 -26 -25 -10 -43 -22
-40 -27 4 -6 9 -5 14 2 4 7 16 9 28 6 13 -5 22 -1 26 10 5 13 9 15 18 6 17
-17 31 -15 24 4 -5 12 -2 15 10 10 8 -3 22 -6 29 -6 7 0 12 -7 11 -16 0 -9 5
-19 13 -22 10 -3 12 0 8 12 -6 15 -3 17 24 11 22 -5 29 -4 25 4 -4 6 -1 11 7
11 19 0 70 -48 62 -59 -3 -5 2 -17 11 -26 9 -9 13 -19 9 -23 -10 -10 -64 60
-58 75 6 15 -1 16 -25 4 -26 -14 -56 -24 -65 -22 -12 2 -37 -26 -30 -33 11
-11 23 -6 23 10 0 10 5 12 13 7 21 -13 37 -12 37 4 0 10 6 13 16 9 9 -3 20 -6
25 -6 5 0 9 -9 9 -20 0 -11 5 -19 12 -17 21 4 17 -47 -6 -72 -11 -13 -16 -21
-9 -18 7 5 14 -10 19 -45 4 -29 7 -58 6 -65 -2 -7 7 -17 18 -23 11 -6 20 -9
20 -6 0 2 16 0 35 -4 21 -5 35 -4 35 1 0 6 9 5 21 -1 15 -9 24 -8 35 1 10 8
14 8 14 0 0 -6 9 -11 20 -11 11 0 20 -4 20 -10 0 -23 26 -8 28 16 2 32 11 46
23 39 5 -3 6 0 3 8 -4 11 2 14 20 12 15 -2 24 1 20 6 -3 5 -17 9 -32 9 -25 1
-26 2 -9 14 17 13 17 15 -3 29 -20 14 -20 15 -3 22 10 5 21 8 24 7 3 -1 -3 17
-14 39 -18 36 -20 38 -33 22 -12 -16 -15 -16 -24 -3 -14 22 -12 30 8 31 12 0
10 3 -7 10 -13 5 -25 8 -25 7 -1 -2 -8 -14 -14 -28 -12 -24 -12 -23 -8 13 5
40 -7 48 -31 20 -12 -14 -14 -15 -10 -2 3 10 -5 19 -24 26 -16 6 -29 7 -29 2
0 -5 -5 -9 -11 -9 -5 0 -7 5 -4 10 3 6 1 10 -4 10 -6 0 -11 -7 -11 -15 0 -10
-12 -2 -31 19 -17 20 -28 40 -24 46 3 5 -1 13 -9 16 -9 3 -16 10 -16 15 0 16
19 10 40 -13 18 -19 22 -20 30 -8 7 11 5 16 -5 18 -8 2 -15 8 -15 14 0 14 42
3 115 -31 33 -15 79 -33 103 -40 35 -10 42 -16 42 -36 0 -34 22 -31 44 5 9 17
21 28 25 26 4 -3 25 -1 47 4 70 14 146 21 140 12 -3 -5 -45 -15 -93 -22 -95
-14 -118 -24 -83 -35 12 -4 25 -3 29 2 3 6 13 10 21 11 8 0 47 4 85 7 69 7 85
-1 25 -14 -39 -8 -35 -26 5 -26 27 0 30 -3 28 -29 -1 -16 -7 -34 -14 -40 -9
-8 -10 -3 -5 24 5 26 4 32 -5 23 -6 -6 -11 -23 -11 -36 0 -19 -7 -27 -27 -33
-20 -5 -22 -8 -8 -11 19 -5 23 -23 5 -23 -10 0 -9 -3 1 -9 11 -7 10 -13 -2
-32 -9 -13 -17 -28 -19 -34 -2 -5 -7 -9 -13 -7 -5 2 -1 -6 9 -17 22 -25 2 -30
-24 -6 -14 13 -16 12 -17 -5 -1 -14 5 -20 18 -20 10 0 19 -4 19 -8 0 -15 107
-55 180 -68 68 -13 80 -16 80 -22 0 -4 -16 -50 -36 -102 -61 -164 -135 -391
-145 -445 -8 -44 6 -304 20 -367 5 -22 21 -57 36 -78 15 -21 75 -146 134 -277
60 -131 188 -413 286 -628 97 -214 204 -451 238 -525 33 -74 69 -147 78 -161
14 -20 83 -54 281 -139 321 -138 447 -192 928 -400 526 -227 531 -230 568
-230 45 0 85 18 236 109 72 43 203 119 291 169 339 190 456 262 586 358 74 55
174 129 223 165 176 127 410 302 424 315 7 8 17 14 21 14 14 0 100 89 127 131
40 65 78 158 191 479 117 330 191 538 265 745 139 391 136 365 83 633 -19 97
-61 321 -95 497 -112 594 -89 523 -349 1078 -157 337 -170 360 -215 381 -34
16 -193 49 -806 166 -146 28 -427 83 -625 121 -441 87 -429 87 -696 0 -274
-89 -338 -106 -350 -94 -8 8 -2 50 19 145 17 73 33 156 36 183 7 63 21 689 21
930 l0 180 -41 85 c-36 74 -588 1113 -728 1369 -28 52 -64 104 -81 116 -37 28
-426 256 -520 306 -38 20 -92 40 -120 43 -27 4 -124 18 -215 31 -326 48 -595
85 -620 85 -14 0 -54 -11 -90 -23z m-750 -1157 c0 -5 -5 -10 -11 -10 -5 0 -7
5 -4 10 3 6 8 10 11 10 2 0 4 -4 4 -10z m60 -140 c0 -5 -5 -10 -11 -10 -5 0
-7 5 -4 10 3 6 8 10 11 10 2 0 4 -4 4 -10z m21 -33 c-1 -12 -15 -9 -19 4 -3 6
1 10 8 8 6 -3 11 -8 11 -12z m129 -248 c0 -5 -7 -9 -15 -9 -9 0 -12 6 -9 15 6
15 24 11 24 -6z m20 -69 c0 -8 -7 -2 -15 14 -19 36 -19 45 0 20 8 -10 14 -26
15 -34z m87 -182 c-3 -8 -6 -5 -6 6 -1 11 2 17 5 13 3 -3 4 -12 1 -19z m-2102
-618 c3 -5 -1 -10 -9 -10 -9 0 -16 5 -16 10 0 6 4 10 9 10 6 0 13 -4 16 -10z
m183 -26 c-39 -21 -35 -27 15 -22 36 4 43 2 43 -12 0 -14 -10 -18 -48 -19 -36
0 -48 3 -48 14 0 8 -1 18 -1 23 -2 8 40 32 56 31 6 0 -2 -7 -17 -15z m392 -18
c-35 -13 -148 -31 -120 -19 23 10 113 31 135 31 12 0 5 -5 -15 -12z m-640 -26
c0 -5 -11 -10 -25 -10 -14 0 -25 5 -25 10 0 6 11 10 25 10 14 0 25 -4 25 -10z
m500 -4 c0 -2 -7 -7 -16 -10 -8 -3 -12 -2 -9 4 6 10 25 14 25 6z m-892 -18
c-3 -7 -11 -13 -18 -13 -7 0 -15 6 -17 13 -3 7 4 12 17 12 13 0 20 -5 18 -12z
m839 6 c-3 -3 -39 -13 -79 -21 -84 -17 -133 -28 -166 -39 -21 -6 -23 -4 -20
16 3 25 37 36 66 22 10 -6 42 -2 82 8 66 18 128 25 117 14z m-967 -24 c0 -13
-11 -13 -30 0 -12 8 -11 10 8 10 12 0 22 -4 22 -10z m585 -40 c-2 -3 14 -5 36
-4 59 3 47 -13 -13 -19 -29 -2 -70 -9 -90 -15 -21 -5 -35 -6 -32 -1 3 5 14 9
24 9 27 0 36 21 14 33 -18 10 -17 11 6 17 24 6 63 -8 55 -20z m-1055 0 c0 -5
-4 -10 -10 -10 -5 0 -10 5 -10 10 0 6 5 10 10 10 6 0 10 -4 10 -10z m396 -35
c18 -13 18 -14 -4 -8 -12 3 -25 9 -28 14 -8 14 10 11 32 -6z m405 -14 c7 11 9
11 9 1 0 -11 12 -12 53 -8 40 5 46 4 29 -4 -13 -5 -45 -12 -70 -14 -26 -2 -54
-6 -62 -9 -8 -3 -28 -8 -45 -11 -30 -5 -30 -5 -5 6 14 7 32 20 40 29 11 13 18
15 28 6 10 -8 16 -7 23 4z m1637 -17 c13 -4 21 -12 19 -18 -2 -6 9 -24 24 -40
24 -26 27 -35 23 -88 -3 -51 -19 -88 -37 -88 -3 0 -28 42 -56 94 -62 116 -66
146 -17 146 12 0 31 -3 44 -6z m-1768 -204 c0 -5 -7 -10 -16 -10 -8 0 -12 5
-9 10 3 6 10 10 16 10 5 0 9 -4 9 -10z m-53 -82 c-3 -8 -6 -5 -6 6 -1 11 2 17
5 13 3 -3 4 -12 1 -19z m1068 -208 c3 -5 1 -10 -4 -10 -6 0 -11 5 -11 10 0 6
2 10 4 10 3 0 8 -4 11 -10z m65 -310 c0 -5 -4 -10 -10 -10 -5 0 -10 5 -10 10
0 6 5 10 10 10 6 0 10 -4 10 -10z m-34 -37 c-3 -3 -13 0 -22 8 -15 12 -14 14
3 20 17 6 32 -15 19 -28z m5044 -93 c0 -5 -4 -10 -9 -10 -6 0 -13 5 -16 10 -3
6 1 10 9 10 9 0 16 -4 16 -10z m-10290 -24 c0 -2 -7 -7 -16 -10 -8 -3 -12 -2
-9 4 6 10 25 14 25 6z m27 -48 c-3 -8 -6 -5 -6 6 -1 11 2 17 5 13 3 -3 4 -12
1 -19z m213 2 c0 -5 -5 -10 -11 -10 -5 0 -7 5 -4 10 3 6 8 10 11 10 2 0 4 -4
4 -10z m-246 -45 c-10 -8 -26 -14 -34 -15 -8 0 -4 6 10 14 34 19 48 20 24 1z
m258 -7 c-7 -7 -12 -8 -12 -2 0 14 12 26 19 19 2 -3 -1 -11 -7 -17z m-112 -17
c0 -6 -4 -13 -10 -16 -5 -3 -10 1 -10 9 0 9 5 16 10 16 6 0 10 -4 10 -9z m150
3 c0 -3 -7 -12 -15 -20 -13 -14 -15 -13 -15 5 0 12 6 21 15 21 8 0 15 -3 15
-6z m-276 -19 c-6 -16 -24 -21 -24 -7 0 11 11 22 21 22 5 0 6 -7 3 -15z
m10597 -7 c22 -6 39 -15 39 -20 0 -9 -92 -9 -135 2 l-30 7 35 10 c47 15 47 15
91 1z m-754 -4 c-3 -3 -12 -4 -19 -1 -8 3 -5 6 6 6 11 1 17 -2 13 -5z m-10022
-14 c3 -6 -1 -7 -9 -4 -18 7 -21 14 -7 14 6 0 13 -4 16 -10z m311 -35 c1 -19
-1 -35 -6 -35 -11 0 -23 57 -15 70 10 17 17 5 21 -35z m214 29 c0 -2 -7 -4
-15 -4 -8 0 -15 4 -15 10 0 5 7 7 15 4 8 -4 15 -8 15 -10z m-403 0 c-3 -3 -12
-4 -19 -1 -8 3 -5 6 6 6 11 1 17 -2 13 -5z m-417 -14 c-8 -5 -19 -10 -25 -10
-5 0 -3 5 5 10 8 5 20 10 25 10 6 0 3 -5 -5 -10z m110 -11 c0 -14 -17 -10 -23
5 -4 10 -1 13 9 9 7 -3 14 -9 14 -14z m-81 -16 c0 -25 -1 -26 -9 -8 -8 19 -9
18 -9 -4 -1 -20 -3 -22 -17 -10 -15 12 -14 15 6 31 29 23 30 23 29 -9z m667 1
c21 6 23 3 21 -24 -2 -32 -11 -39 -21 -15 -3 8 -12 15 -21 15 -10 0 -15 9 -14
28 1 18 3 21 6 9 4 -14 11 -17 29 -13z m49 16 c3 -5 1 -10 -4 -10 -6 0 -11 5
-11 10 0 6 2 10 4 10 3 0 8 -4 11 -10z m45 0 c0 -5 -4 -10 -10 -10 -5 0 -10 5
-10 10 0 6 5 10 10 10 6 0 10 -4 10 -10z m-533 -22 c-3 -8 -6 -5 -6 6 -1 11 2
17 5 13 3 -3 4 -12 1 -19z m10433 6 c0 -8 -5 -12 -10 -9 -6 4 -8 11 -5 16 9
14 15 11 15 -7z m-10760 -9 c-13 -15 -8 -19 23 -16 23 3 22 -11 -3 -32 -11 -9
-20 -14 -20 -12 0 3 -9 1 -19 -4 -15 -8 -20 -7 -24 8 -3 14 0 18 17 14 20 -3
20 -3 -1 8 -25 13 -32 32 -8 23 9 -4 15 0 15 10 0 9 7 16 16 16 14 0 14 -3 4
-15z m126 -12 c-10 -10 -19 5 -10 18 6 11 8 11 12 0 2 -7 1 -15 -2 -18z m578
12 c-4 -8 -8 -15 -10 -15 -2 0 -4 7 -4 15 0 8 4 15 10 15 5 0 7 -7 4 -15z
m-294 -5 c0 -5 -5 -10 -11 -10 -5 0 -7 5 -4 10 3 6 8 10 11 10 2 0 4 -4 4 -10z
m175 0 c3 -5 2 -10 -4 -10 -5 0 -13 5 -16 10 -3 6 -2 10 4 10 5 0 13 -4 16
-10z m68 -20 c13 0 17 -5 13 -15 -3 -8 -2 -15 2 -15 5 0 16 -16 25 -35 9 -19
22 -36 29 -36 7 -1 20 -2 28 -3 8 0 16 -11 18 -23 3 -22 22 -33 22 -13 0 5 7
7 16 3 13 -5 11 -8 -8 -22 -26 -18 -36 -71 -13 -71 9 0 12 -6 8 -17 -5 -12 -3
-14 7 -8 10 6 12 4 7 -8 -3 -8 1 -21 9 -28 9 -7 12 -20 9 -33 -4 -12 -3 -16 2
-11 4 6 18 16 31 23 20 11 22 10 22 -8 0 -11 -7 -36 -14 -55 -13 -31 -13 -35
0 -35 8 0 13 -4 9 -9 -3 -5 -1 -12 5 -16 6 -4 8 -11 5 -16 -4 -5 2 -9 12 -9
15 0 16 -2 3 -10 -13 -8 -12 -10 3 -10 9 0 17 -7 17 -15 0 -8 5 -15 11 -15 8
0 8 -5 -1 -15 -9 -10 -9 -15 -1 -15 6 0 11 -10 11 -22 0 -12 8 -30 17 -40 9
-10 17 -35 17 -56 1 -29 5 -37 19 -36 11 1 17 -4 16 -15 -2 -16 3 -33 23 -81
6 -14 12 -35 14 -48 3 -23 34 -62 34 -42 0 7 5 6 14 -2 10 -10 11 -16 3 -26
-14 -18 -20 -52 -8 -52 5 0 14 7 21 15 17 21 26 19 27 -7 0 -13 -1 -17 -4 -10
-3 9 -10 4 -19 -13 -18 -35 -18 -35 7 -35 11 0 17 -4 14 -10 -16 -26 -13 -50
5 -50 14 0 18 5 13 17 -4 10 -2 14 4 10 6 -4 11 -18 11 -33 0 -14 6 -30 13
-35 12 -7 11 -9 -1 -10 -10 0 -8 -3 5 -9 11 -5 14 -9 8 -9 -15 -1 -17 -47 -3
-56 6 -3 10 -1 10 4 0 6 7 11 15 11 8 0 12 -6 9 -14 -3 -7 2 -16 10 -19 12 -5
14 -12 6 -32 -8 -21 -7 -25 8 -25 9 0 24 -6 32 -13 21 -17 48 -52 33 -44 -6 4
-14 3 -18 -3 -4 -6 -10 -8 -15 -5 -4 3 -11 -3 -15 -13 -14 -30 -13 -41 0 -36
8 3 18 -4 25 -15 8 -16 8 -21 -2 -21 -10 0 -10 -2 -1 -8 16 -10 11 -36 -10
-60 -9 -10 -17 -25 -17 -32 0 -9 -7 -6 -20 8 -23 24 -25 43 -8 60 9 9 9 12 0
12 -6 0 -16 -8 -22 -17 -10 -16 -10 -16 -8 2 2 11 10 25 18 32 13 11 12 12 -4
13 -20 0 -20 0 0 16 16 13 16 15 2 10 -10 -3 -18 -1 -18 4 0 17 -18 11 -24 -7
-3 -10 -4 -3 -2 15 1 17 -1 32 -6 32 -5 0 -2 14 7 30 16 32 16 34 -9 24 -9 -3
-13 -10 -10 -15 3 -5 0 -9 -5 -9 -13 0 -13 4 -2 52 7 29 6 35 -5 31 -8 -3 -11
-10 -7 -17 3 -6 0 -5 -8 3 -11 10 -11 15 -1 18 6 3 12 9 12 14 0 6 -4 8 -9 4
-15 -9 -33 34 -29 67 3 16 0 32 -5 35 -6 3 -7 1 -4 -4 4 -6 0 -14 -9 -17 -12
-4 -14 -1 -9 13 3 11 1 22 -5 26 -5 3 -10 0 -10 -7 0 -7 -9 5 -19 27 -12 28
-15 42 -7 47 7 5 3 13 -12 24 -17 12 -23 23 -19 41 3 15 -1 27 -9 30 -7 2 -10
11 -8 18 3 7 -3 18 -14 24 -18 9 -32 40 -31 65 1 5 -3 12 -8 15 -15 11 -66
129 -59 139 3 5 -1 15 -8 21 -8 7 -13 23 -11 36 1 16 -3 25 -11 25 -8 0 -14 5
-14 12 0 6 -8 20 -17 30 -13 14 -14 21 -5 30 17 17 15 38 -3 38 -11 0 -14 7
-9 25 5 21 3 25 -15 25 -27 0 -38 27 -21 53 10 17 10 22 -5 33 -9 7 -14 17
-11 23 10 16 -32 91 -48 85 -8 -3 -16 3 -19 15 -3 12 -1 19 4 15 12 -7 11 22
-1 44 -5 9 -15 30 -20 46 -7 18 -15 26 -25 22 -11 -4 -13 1 -8 24 3 19 1 30
-5 30 -6 0 -9 -7 -6 -15 4 -8 1 -15 -5 -15 -6 0 -12 7 -12 15 -1 8 -2 21 -3
28 -3 20 16 39 28 27 5 -5 19 -10 29 -10z m-713 0 c0 -5 -4 -10 -10 -10 -5 0
-10 -9 -10 -20 0 -11 -5 -20 -11 -20 -5 0 -8 4 -4 9 3 5 1 12 -5 16 -5 3 -10
1 -10 -4 0 -6 -4 -11 -10 -11 -18 0 -10 15 18 32 31 20 42 22 42 8z m900 5 c0
-7 -30 -13 -34 -7 -3 4 4 9 15 9 10 1 19 0 19 -2z m81 -10 c10 6 11 5 3 -4
-12 -14 -47 -4 -38 11 4 6 9 6 14 -2 5 -7 14 -9 21 -5z m-74 -27 c-3 -8 -6 -5
-6 6 -1 11 2 17 5 13 3 -3 4 -12 1 -19z m-946 -28 c32 0 40 -19 9 -21 -11 -1
-28 -2 -37 -2 -10 -1 -21 -6 -25 -12 -5 -6 -12 -5 -18 5 -8 13 -11 13 -19 1
-5 -7 -13 -11 -17 -8 -13 8 -47 -20 -39 -32 3 -6 16 -11 28 -12 21 0 21 -1 2
-8 -12 -5 -23 -4 -27 2 -5 8 -15 7 -32 -2 -14 -8 -23 -18 -20 -23 3 -4 -1 -8
-9 -8 -8 0 -17 7 -21 15 -6 17 -36 21 -36 4 0 -5 5 -7 10 -4 6 3 10 -1 10 -9
0 -20 -4 -20 -38 1 -27 17 -27 17 -9 -3 21 -25 22 -34 1 -34 -8 0 -12 -4 -9
-10 3 -5 -1 -10 -10 -10 -15 0 -25 6 -60 38 -18 16 -21 15 -21 -8 0 -15 5 -18
18 -14 10 3 18 1 18 -5 0 -6 -3 -10 -7 -10 -29 5 -35 -2 -29 -31 4 -21 2 -29
-5 -24 -6 4 -15 0 -20 -7 -4 -7 -11 -10 -16 -6 -4 5 -2 11 4 15 8 5 9 19 3 42
-4 19 -8 29 -9 23 -1 -7 -8 -13 -17 -13 -8 0 -13 -3 -11 -7 3 -5 -4 -17 -14
-27 -17 -17 -19 -18 -19 -3 0 9 -7 17 -15 17 -8 0 -15 5 -15 11 0 6 9 8 21 4
14 -5 19 -3 15 3 -4 7 17 22 51 38 32 14 69 32 83 39 14 7 43 18 65 25 22 7
45 16 50 20 6 5 19 10 30 12 10 1 27 11 37 21 10 9 25 17 33 17 8 0 29 9 47
20 l33 20 14 -20 c8 -12 25 -20 42 -20z m169 30 c0 -5 -5 -10 -11 -10 -5 0 -7
5 -4 10 3 6 8 10 11 10 2 0 4 -4 4 -10z m656 -6 c-3 -8 -2 -12 4 -9 6 4 10 -6
10 -22 l0 -28 -27 28 c-24 23 -26 29 -13 37 22 14 33 12 26 -6z m-713 -40 c-3
-9 -9 -12 -12 -7 -3 4 -10 11 -15 16 -5 4 0 7 12 7 15 0 20 -4 15 -16z m884
-29 c-15 -16 -19 -13 -11 9 3 9 10 13 15 10 5 -3 3 -11 -4 -19z m55 0 c6 -28
-6 -34 -16 -9 -5 14 0 34 8 34 2 0 6 -11 8 -25z m9750 4 c16 -8 23 -8 30 2 8
11 9 11 5 -1 -2 -9 -18 -16 -40 -18 -34 -3 -46 5 -30 21 8 9 11 9 35 -4z
m-9852 -39 c-6 -12 -14 -20 -17 -17 -2 3 1 14 8 26 17 26 24 19 9 -9z m-371
-9 c17 -9 26 -10 34 -2 6 6 17 11 23 11 11 0 45 -63 74 -135 5 -11 29 -64 54
-118 25 -54 46 -102 46 -107 0 -5 12 -32 27 -61 14 -30 26 -66 26 -81 0 -15 4
-25 8 -23 10 7 41 -74 33 -87 -4 -7 -2 -8 4 -4 7 4 16 -11 25 -41 8 -26 35
-91 61 -144 25 -53 46 -99 46 -103 0 -4 11 -31 24 -59 22 -47 57 -125 61 -137
1 -3 9 -22 18 -42 10 -21 17 -40 17 -44 0 -3 6 -20 14 -37 17 -40 28 -69 31
-83 2 -6 6 -26 10 -43 6 -28 4 -31 -17 -32 -23 -1 -23 -1 2 -8 20 -6 24 -13
22 -36 -5 -44 6 -78 23 -71 17 6 22 -39 5 -49 -15 -10 -12 -55 5 -61 12 -5 15
-25 15 -89 0 -58 4 -85 13 -88 6 -2 8 -8 4 -13 -4 -5 -12 -3 -16 4 -4 7 -22
11 -42 10 -30 -3 -34 0 -37 25 -2 15 -9 27 -18 27 -8 0 -14 5 -14 10 0 6 -4
10 -10 10 -16 0 -12 -22 7 -35 14 -11 15 -17 6 -38 -11 -23 -10 -26 10 -29 19
-3 17 -6 -14 -20 -21 -9 -41 -24 -47 -33 -5 -10 -21 -17 -36 -17 -14 0 -29 -4
-32 -9 -3 -5 -13 -9 -24 -9 -10 0 -20 -7 -24 -15 -3 -8 -15 -15 -26 -15 -11 0
-20 -4 -20 -10 0 -5 -13 -10 -30 -10 -20 0 -30 -5 -30 -15 0 -9 -6 -15 -12
-14 -28 3 -38 -2 -38 -21 0 -11 -12 -27 -27 -37 -16 -10 -30 -20 -33 -23 -3
-3 -24 -12 -48 -20 -40 -13 -71 -40 -98 -85 -10 -17 -11 -17 -31 4 -21 23 -21
23 -32 3 -6 -12 -8 -23 -3 -25 13 -9 104 1 115 12 6 6 21 11 33 11 13 0 25 4
28 9 3 5 35 19 71 32 36 12 65 26 65 31 0 11 62 10 80 -2 11 -8 8 -9 -11 -5
-20 5 -32 1 -47 -15 -22 -24 -185 -100 -213 -100 -10 0 -21 -5 -25 -11 -6 -11
-221 -117 -282 -140 -24 -9 -25 -9 -20 46 l5 56 -30 -7 c-23 -5 -35 -1 -58 22
-34 32 -49 28 -18 -5 12 -12 19 -25 16 -27 -8 -8 -47 29 -47 43 0 7 -7 13 -16
13 -12 0 -15 6 -11 22 7 24 -17 77 -43 95 -10 7 -23 26 -30 43 -7 16 -17 30
-22 30 -5 0 -7 8 -4 18 6 18 -38 121 -46 106 -3 -5 -3 -2 -1 6 12 39 15 80 7
80 -5 0 -24 14 -42 31 -23 22 -31 36 -27 50 4 11 2 19 -4 19 -6 0 -11 6 -11
14 0 17 -46 67 -54 59 -3 -4 -6 8 -6 25 0 38 -9 64 -20 57 -5 -3 -21 15 -35
40 -19 32 -25 52 -21 72 5 23 2 30 -16 38 -13 6 -23 15 -24 20 0 6 -4 18 -8
28 -5 9 -6 29 -3 43 3 18 -1 28 -15 35 -12 7 -18 18 -15 29 2 10 -4 25 -15 35
-11 9 -18 24 -15 34 2 9 -2 22 -9 29 -7 7 -10 20 -7 29 4 10 2 14 -4 10 -11
-7 -35 46 -27 57 2 3 1 4 -3 1 -3 -3 -17 21 -30 53 -37 88 -113 282 -113 287
0 2 -11 28 -24 57 -33 71 -56 127 -66 160 -7 24 -4 29 31 52 21 14 43 26 49
26 5 0 10 3 10 8 0 7 81 44 90 40 3 -1 23 8 45 19 33 18 234 114 285 137 8 3
29 15 45 25 17 11 40 20 53 20 12 1 22 6 22 11 0 6 6 10 12 10 7 0 35 11 63
24 68 33 87 39 108 37 9 -1 17 2 17 8 0 19 110 63 140 56 17 -4 31 -1 36 6 5
8 3 9 -6 4 -8 -5 -11 -4 -7 2 4 6 25 9 48 7 33 -3 40 -1 35 11 -6 17 17 16 53
-4z m26 9 c3 -5 1 -10 -4 -10 -6 0 -11 5 -11 10 0 6 2 10 4 10 3 0 8 -4 11
-10z m-588 -20 c2 -20 -8 -26 -20 -13 -4 3 -2 12 4 20 15 17 14 17 16 -7z
m-47 -16 c0 -22 -16 -24 -32 -5 -15 17 -14 19 8 19 13 0 24 -6 24 -14z m-64
-19 c-35 -19 -40 -19 -24 0 7 8 22 14 33 15 16 0 14 -3 -9 -15z m-56 -11 c0
-8 -4 -12 -10 -9 -5 3 -10 10 -10 16 0 5 5 9 10 9 6 0 10 -7 10 -16z m1145 -6
c-3 -8 -12 -15 -20 -15 -12 0 -11 4 3 17 20 20 25 19 17 -2z m-1105 -33 c-7
-9 -15 -13 -17 -11 -6 6 20 36 26 30 2 -2 -2 -10 -9 -19z m1055 -5 c-2 -27
-15 -38 -15 -13 0 16 8 33 15 33 1 0 1 -9 0 -20z m-1479 1 c-3 -5 2 -12 11
-15 11 -5 14 -9 6 -14 -6 -4 -13 -16 -16 -27 -4 -18 -5 -18 -6 3 0 12 -4 22
-7 22 -15 0 -44 -22 -44 -35 0 -7 -4 -17 -10 -20 -5 -3 -8 0 -5 7 4 9 -3 13
-20 13 -15 0 -25 -6 -25 -14 0 -11 -3 -12 -11 -4 -9 9 -15 8 -25 -2 -17 -17
-17 -22 -1 -28 6 -2 -1 -3 -16 -1 -21 3 -36 -4 -59 -26 -23 -23 -35 -29 -55
-24 -23 6 -24 5 -14 -15 11 -19 8 -25 -11 -22 -5 0 -8 -6 -8 -15 0 -10 6 -14
14 -11 10 4 12 0 9 -14 -3 -11 -9 -22 -14 -25 -5 -3 -6 2 -3 10 9 23 -9 20
-24 -4 -7 -11 -20 -20 -30 -20 -14 0 -15 2 -2 10 12 7 12 10 1 10 -8 0 -11 6
-7 15 4 13 2 14 -14 5 -14 -7 -20 -7 -20 0 0 5 -5 10 -12 10 -9 0 -9 -3 0 -12
13 -13 17 -58 5 -58 -22 1 -53 14 -53 22 0 6 11 7 24 4 24 -6 24 -5 10 21 -7
16 -14 35 -14 44 0 17 26 33 40 24 4 -3 10 2 14 10 3 8 15 15 26 15 11 0 20 4
20 9 0 5 44 28 98 51 53 24 129 58 167 76 74 35 90 39 81 25z m334 -6 c0 -8
-4 -15 -10 -15 -5 0 -7 7 -4 15 4 8 8 15 10 15 2 0 4 -7 4 -15z m60 5 c0 -5
-7 -10 -15 -10 -7 0 -19 -8 -24 -17 -6 -10 -11 -13 -11 -6 0 14 27 43 41 43 5
0 9 -4 9 -10z m1168 -3 c10 -8 10 -13 0 -25 -11 -13 -10 -14 9 -8 18 6 20 4
16 -13 -4 -17 -9 -19 -24 -10 -10 5 -19 19 -19 29 0 25 -7 25 -34 3 -21 -18
-21 -18 -3 3 9 11 15 23 12 26 -10 9 30 5 43 -5z m-1262 -17 c0 -11 -6 -20
-13 -20 -11 0 -11 5 -3 20 6 11 12 20 13 20 2 0 3 -9 3 -20z m6754 -1 c57 -34
105 -97 63 -82 -27 9 -43 24 -38 34 3 4 -13 22 -36 39 -48 34 -41 40 11 9z
m-5377 -50 c5 -4 6 -12 2 -19 -5 -8 -11 -5 -22 9 -8 12 -11 26 -7 33 6 9 9 8
12 -2 3 -8 9 -18 15 -21z m-1596 7 c17 5 17 5 1 -6 -13 -8 -23 -8 -38 0 -11 6
-20 13 -20 16 0 2 9 0 19 -6 11 -5 28 -7 38 -4z m1467 -4 c2 -4 1 -14 -3 -21
-6 -9 -10 -7 -14 8 -5 20 7 29 17 13z m-1254 -12 c-8 -5 -24 -9 -35 -9 l-20 0
20 9 c11 5 27 9 35 9 13 1 13 0 0 -9z m-260 -4 c0 -3 -4 -8 -10 -11 -5 -3 -10
-1 -10 4 0 6 5 11 10 11 6 0 10 -2 10 -4z m1580 -6 c0 -5 -7 -10 -16 -10 -8 0
-12 5 -9 10 3 6 10 10 16 10 5 0 9 -4 9 -10z m-1380 -13 c0 -10 -51 -29 -58
-22 -3 3 0 5 7 5 7 0 11 6 8 14 -4 10 2 13 19 12 13 0 24 -4 24 -9z m-317 -22
c-7 -21 -13 -19 -13 6 0 11 4 18 10 14 5 -3 7 -12 3 -20z m1785 8 c-2 -9 -14
-18 -28 -20 -24 -3 -24 -3 -5 16 25 25 37 26 33 4z m5908 -50 c64 -66 73 -84
41 -89 -41 -6 -119 -37 -124 -50 -3 -8 -9 -14 -15 -14 -5 0 -6 5 -3 10 8 13
-11 13 -55 0 -25 -7 -36 -7 -43 3 -7 9 -10 9 -14 0 -7 -18 -23 -16 -23 2 0 8
5 15 10 15 6 0 10 5 10 11 0 7 8 18 18 25 14 11 11 12 -27 7 -32 -4 -42 -3
-37 5 4 7 2 12 -4 12 -6 0 -9 4 -6 9 4 5 1 11 -6 13 -9 3 -9 6 -1 11 7 5 17
-1 23 -13 6 -11 17 -20 25 -20 20 0 19 9 -2 33 -20 23 -2 16 30 -11 15 -13 17
-13 17 -1 0 8 -6 21 -12 28 -7 8 0 5 17 -5 27 -17 29 -18 22 -1 -7 19 17 25
28 7 10 -15 32 11 40 48 3 18 11 32 17 32 5 0 39 -30 74 -67z m-5972 24 c7 -6
6 -7 -4 -4 -8 2 -16 12 -17 23 -2 13 -1 15 4 4 3 -8 11 -19 17 -23z m-1697 1
c-3 -8 -6 -5 -6 6 -1 11 2 17 5 13 3 -3 4 -12 1 -19z m1591 -9 c-3 -8 -7 -3
-11 10 -4 17 -3 21 5 13 5 -5 8 -16 6 -23z m52 -22 c0 -13 -25 16 -33 38 -6
16 -3 15 13 -5 11 -14 20 -29 20 -33z m159 8 c0 -5 -3 -4 -8 4 -8 13 -12 13
-27 0 -16 -12 -15 -11 1 15 17 26 20 27 26 10 4 -11 8 -23 8 -29z m-1929 25
c0 -5 -5 -10 -11 -10 -5 0 -7 5 -4 10 3 6 8 10 11 10 2 0 4 -4 4 -10z m290 0
c0 -13 -84 -30 -94 -20 -7 7 -5 10 5 10 10 0 11 2 2 8 -6 4 11 8 38 8 27 0 49
-3 49 -6z m-293 -42 c-3 -8 -6 -5 -6 6 -1 11 2 17 5 13 3 -3 4 -12 1 -19z
m168 12 c3 -5 2 -10 -4 -10 -5 0 -13 5 -16 10 -3 6 -2 10 4 10 5 0 13 -4 16
-10z m40 -10 c3 -5 -1 -10 -9 -10 -9 0 -16 5 -16 10 0 6 4 10 9 10 6 0 13 -4
16 -10z m1577 -22 c-7 -7 -12 -8 -12 -2 0 14 12 26 19 19 2 -3 -1 -11 -7 -17z
m134 2 c0 -11 -4 -20 -8 -20 -4 0 -8 9 -8 20 0 11 4 20 8 20 4 0 8 -9 8 -20z
m4895 -27 c-11 -21 -23 -59 -26 -84 -4 -32 -14 -54 -32 -70 l-26 -24 7 45 c11
75 36 139 63 160 35 27 39 20 14 -27z m-6881 22 c0 -8 -4 -15 -10 -15 -5 0
-10 7 -10 15 0 8 5 15 10 15 6 0 10 -7 10 -15z m1920 -25 c5 0 11 6 14 13 3 6
4 -1 0 -17 -5 -27 -4 -28 13 -15 16 12 17 12 6 -2 -7 -8 -10 -25 -6 -37 3 -14
1 -22 -7 -22 -7 0 -10 7 -6 15 5 13 2 14 -17 4 -19 -10 -20 -10 -11 2 7 8 8
22 3 34 -4 11 -7 29 -7 40 0 17 1 17 5 3 2 -10 8 -18 13 -18z m5664 -13 c7
-12 7 -20 -1 -28 -8 -8 -13 -7 -18 2 -5 8 -4 10 3 5 7 -4 12 -2 12 3 0 6 -5
11 -11 11 -5 0 -8 4 -5 9 4 5 1 12 -4 14 -6 3 -5 4 2 3 6 -1 16 -10 22 -19z
m-5594 -18 c0 -10 -4 -19 -9 -19 -5 0 -8 11 -7 24 1 28 16 24 16 -5z m-1853
15 c-3 -3 -12 -4 -19 -1 -8 3 -5 6 6 6 11 1 17 -2 13 -5z m7403 -4 c0 -5 -15
-10 -32 -9 -31 1 -32 1 -8 9 35 11 40 11 40 0z m-5680 -10 c0 -5 -2 -10 -4
-10 -3 0 -8 5 -11 10 -3 6 -1 10 4 10 6 0 11 -4 11 -10z m1639 -20 c34 -23 77
-117 86 -186 6 -47 4 -53 -16 -68 -13 -9 -29 -16 -36 -16 -7 0 -38 -12 -70
-26 -32 -14 -67 -30 -78 -34 -11 -4 -31 -12 -45 -18 -56 -23 -72 -22 -100 8
-34 36 -83 156 -76 184 8 31 197 147 271 166 17 4 32 8 33 9 2 1 16 -8 31 -19z
m-3439 -15 c-7 -9 -15 -13 -18 -10 -3 2 1 11 8 20 7 9 15 13 18 10 3 -2 -1
-11 -8 -20z m1997 6 c10 -16 9 -20 -3 -25 -23 -9 -24 -8 -24 19 0 30 11 32 27
6z m4930 2 c4 -10 -3 -24 -20 -39 -14 -12 -33 -37 -41 -56 -8 -18 -15 -26 -15
-18 -1 20 51 130 61 130 5 0 11 -7 15 -17z m533 13 c0 -2 -7 -6 -15 -10 -8 -3
-15 -1 -15 4 0 6 7 10 15 10 8 0 15 -2 15 -4z m-50 -10 c0 -11 -19 -15 -25 -6
-3 5 1 10 9 10 9 0 16 -2 16 -4z m-5618 -28 c-7 -7 -12 -8 -12 -2 0 14 12 26
19 19 2 -3 -1 -11 -7 -17z m148 2 c-8 -5 -18 -6 -22 -4 -4 3 -8 0 -8 -5 0 -6
-5 -11 -11 -11 -20 0 -3 24 22 31 29 7 39 1 19 -11z m-2086 -5 c-4 -8 -13 -15
-20 -15 -12 0 -12 3 -2 15 17 19 29 19 22 0z m193 -40 c38 -65 49 -105 28
-105 -8 0 -15 -4 -15 -10 0 -5 5 -10 11 -10 6 0 9 -7 5 -15 -4 -12 0 -14 19
-9 20 5 25 2 25 -14 0 -11 -6 -23 -12 -26 -9 -3 -3 -13 15 -29 l29 -24 -26 -7
-27 -7 20 -24 c11 -15 17 -34 14 -45 -4 -13 0 -20 10 -20 19 0 28 -23 32 -78
3 -42 15 -73 15 -38 0 9 4 15 9 11 13 -7 10 -48 -4 -58 -6 -4 -1 -9 12 -13 18
-5 21 -10 13 -24 -16 -30 -12 -40 25 -56 19 -8 35 -17 35 -20 0 -3 -4 -2 -10
1 -5 3 -10 -1 -10 -9 0 -9 5 -16 11 -16 5 0 8 -4 5 -9 -4 -5 0 -12 6 -15 7 -3
3 -3 -9 0 -15 3 -25 -1 -33 -16 -14 -27 -8 -35 18 -21 23 12 36 3 21 -15 -6
-8 -9 -21 -5 -29 3 -8 1 -15 -4 -15 -6 0 -10 -5 -10 -12 0 -9 3 -9 12 0 19 19
28 14 28 -17 0 -17 4 -32 9 -35 4 -3 6 -17 3 -31 -2 -14 0 -25 6 -25 6 0 19
-16 28 -35 9 -19 20 -32 25 -29 15 9 10 -13 -6 -26 -13 -11 -13 -14 2 -26 17
-13 17 -14 -2 -7 -17 6 -18 4 -8 -8 8 -9 9 -20 3 -29 -6 -8 -10 -11 -10 -6 0
5 -7 3 -15 -4 -8 -6 -19 -9 -25 -5 -5 3 -10 2 -10 -4 0 -6 -7 -8 -15 -5 -8 4
-15 10 -15 16 0 5 5 6 10 3 6 -3 10 -1 10 4 0 6 7 11 15 11 9 0 15 9 15 25 0
25 -23 35 -35 15 -3 -6 1 -7 12 -4 17 5 17 5 0 -6 -14 -9 -22 -9 -30 -1 -6 6
-27 11 -46 12 l-36 1 35 10 c43 12 75 38 46 38 -32 0 -49 27 -38 60 8 23 8 28
-2 24 -8 -3 -16 4 -19 16 -3 13 -12 20 -23 18 -11 -2 -18 4 -19 20 -1 13 4 22
13 22 9 0 12 6 8 16 -4 10 3 24 16 36 17 14 18 18 6 14 -10 -3 -20 -1 -23 4
-8 13 -65 13 -65 0 0 -5 -9 -10 -20 -10 -25 0 -26 -17 -2 -23 9 -2 4 -4 -13
-4 -16 -1 -37 -2 -45 -4 -10 -3 -14 2 -12 16 5 23 22 37 40 30 7 -2 25 0 40 6
27 11 27 11 5 20 -13 4 -23 13 -23 20 0 6 7 8 16 5 8 -3 12 -2 9 3 -3 5 -1 12
5 16 16 10 1 25 -18 18 -14 -6 -15 -4 -4 9 10 13 9 16 -8 21 -26 7 -60 -2 -60
-17 0 -9 -39 -13 -69 -7 -7 2 32 41 40 41 5 0 6 -7 3 -15 -10 -24 13 -17 34
10 11 14 25 25 31 25 6 0 11 5 11 10 0 6 -4 10 -10 10 -17 0 -11 18 9 25 33
10 14 42 -29 49 -32 5 -37 10 -37 31 0 15 7 30 18 36 24 12 25 1 2 -17 -16
-12 -16 -13 -2 -14 9 0 27 10 40 22 17 14 19 19 7 15 -12 -4 -18 -1 -18 9 0
11 -6 14 -17 10 -17 -6 -17 -5 0 8 23 18 22 26 -4 26 -12 0 -17 4 -14 11 4 6
13 8 20 5 8 -3 11 2 8 15 -3 10 -12 19 -19 19 -8 0 -14 5 -14 10 0 6 -4 10
-10 10 -5 0 -7 -6 -4 -13 3 -8 -4 -13 -18 -14 -13 0 -17 1 -10 4 6 3 12 12 12
20 0 13 -3 13 -15 3 -12 -10 -15 -9 -15 4 0 9 7 19 15 22 27 11 16 21 -17 18
-30 -4 -31 -3 -12 12 10 8 13 13 7 9 -7 -3 -13 -1 -13 5 0 6 12 9 26 8 15 -2
29 3 31 10 3 6 0 12 -7 12 -6 0 -8 -5 -4 -12 4 -7 3 -8 -4 -4 -6 4 -9 13 -5
21 3 9 -1 15 -11 15 -8 0 -20 9 -25 19 -8 15 -7 20 6 25 9 4 13 9 10 13 -4 3
-2 14 4 24 7 13 6 19 -1 19 -6 0 -9 4 -6 9 3 5 -10 16 -29 25 -41 20 -47 30
-9 16 20 -8 29 -7 38 3 12 15 58 48 62 44 1 -1 15 -25 31 -52z m7420 49 c-3
-3 -12 -4 -19 -1 -8 3 -5 6 6 6 11 1 17 -2 13 -5z m-7698 -10 c18 -4 21 -8 12
-17 -8 -8 -14 -8 -19 -2 -4 6 -15 11 -24 13 -21 3 -25 -37 -6 -56 7 -7 8 -12
2 -12 -18 0 -34 23 -34 50 0 28 22 35 69 24z m8091 -4 c0 -5 -5 -10 -11 -10
-5 0 -7 5 -4 10 3 6 8 10 11 10 2 0 4 -4 4 -10z m-7920 -10 c0 -5 -4 -10 -10
-10 -5 0 -10 5 -10 10 0 6 5 10 10 10 6 0 10 -4 10 -10z m1890 -10 c0 -11 -5
-20 -11 -20 -5 0 -7 5 -4 10 3 6 1 10 -4 10 -6 0 -11 5 -11 10 0 6 7 10 15 10
8 0 15 -9 15 -20z m126 4 c-6 -15 -4 -15 10 -3 16 13 16 12 4 -11 -7 -14 -21
-32 -31 -41 -10 -9 -15 -20 -11 -24 4 -5 1 -5 -7 0 -8 4 -17 2 -22 -6 -6 -10
-8 -8 -6 8 0 12 5 19 10 16 13 -8 37 18 37 42 0 12 3 25 7 28 11 12 15 8 9 -9z
m5974 -4 c0 -5 -5 -10 -11 -10 -5 0 -7 5 -4 10 3 6 8 10 11 10 2 0 4 -4 4 -10z
m-8120 -10 c0 -5 -2 -10 -4 -10 -3 0 -8 5 -11 10 -3 6 -1 10 4 10 6 0 11 -4
11 -10z m2067 4 c-3 -3 -12 -4 -19 -1 -8 3 -5 6 6 6 11 1 17 -2 13 -5z m5948
-4 c3 -5 1 -10 -4 -10 -6 0 -11 5 -11 10 0 6 2 10 4 10 3 0 8 -4 11 -10z m55
6 c0 -3 -4 -8 -10 -11 -5 -3 -10 -1 -10 4 0 6 5 11 10 11 6 0 10 -2 10 -4z
m-5874 -54 c-15 -15 -16 -15 -16 1 0 11 5 15 11 11 8 -4 9 1 5 17 -6 21 -6 22
5 5 9 -14 8 -21 -5 -34z m5774 38 c0 -5 -4 -10 -10 -10 -5 0 -10 5 -10 10 0 6
5 10 10 10 6 0 10 -4 10 -10z m220 0 c0 -5 -5 -10 -11 -10 -5 0 -7 5 -4 10 3
6 8 10 11 10 2 0 4 -4 4 -10z m-250 -10 c0 -5 -5 -10 -11 -10 -5 0 -7 5 -4 10
3 6 8 10 11 10 2 0 4 -4 4 -10z m145 0 c3 -5 1 -10 -4 -10 -6 0 -11 5 -11 10
0 6 2 10 4 10 3 0 8 -4 11 -10z m65 6 c0 -2 -7 -6 -15 -10 -8 -3 -15 -1 -15 4
0 6 7 10 15 10 8 0 15 -2 15 -4z m-110 -16 c-20 -13 -33 -13 -25 0 3 6 14 10
23 10 15 0 15 -2 2 -10z m-8003 -6 c-3 -3 -12 -4 -19 -1 -8 3 -5 6 6 6 11 1
17 -2 13 -5z m8133 -10 c0 -2 -7 -4 -15 -4 -8 0 -15 4 -15 10 0 5 7 7 15 4 8
-4 15 -8 15 -10z m40 12 c0 -3 -4 -8 -10 -11 -5 -3 -10 -1 -10 4 0 6 5 11 10
11 6 0 10 -2 10 -4z m-6047 -26 c3 -11 1 -20 -4 -20 -5 0 -9 9 -9 20 0 11 2
20 4 20 2 0 6 -9 9 -20z m5407 16 c0 -2 -9 -6 -20 -9 -11 -3 -18 -1 -14 4 5 9
34 13 34 5z m378 -2 c-4 -3 -12 -6 -20 -8 -7 -1 -19 -5 -25 -9 -7 -5 -13 -4
-13 1 0 15 12 22 38 22 14 0 23 -3 20 -6z m-7918 -14 c0 -5 -5 -10 -11 -10 -5
0 -7 5 -4 10 3 6 8 10 11 10 2 0 4 -4 4 -10z m2032 1 c-7 -4 -10 -15 -6 -24 3
-9 10 -14 15 -11 5 3 9 -2 9 -10 0 -9 -4 -16 -10 -16 -5 0 -10 3 -10 8 0 4
-11 19 -24 33 l-24 26 31 1 c18 0 26 -2 19 -7z m6008 5 c0 -2 -7 -6 -15 -10
-8 -3 -15 -1 -15 4 0 6 7 10 15 10 8 0 15 -2 15 -4z m210 0 c0 -3 -4 -8 -10
-11 -5 -3 -10 -1 -10 4 0 6 5 11 10 11 6 0 10 -2 10 -4z m-8350 -16 c0 -5 -5
-10 -11 -10 -5 0 -7 5 -4 10 3 6 8 10 11 10 2 0 4 -4 4 -10z m8240 0 c0 -5 -5
-10 -11 -10 -5 0 -7 5 -4 10 3 6 8 10 11 10 2 0 4 -4 4 -10z m-5930 -4 c0 -3
-4 -8 -10 -11 -5 -3 -10 -1 -10 4 0 6 5 11 10 11 6 0 10 -2 10 -4z m5727 -2
c-3 -3 -12 -4 -19 -1 -8 3 -5 6 6 6 11 1 17 -2 13 -5z m173 2 c0 -2 -7 -6 -15
-10 -8 -3 -15 -1 -15 4 0 6 7 10 15 10 8 0 15 -2 15 -4z m-8116 -20 c-7 -17
-42 -28 -50 -15 -3 5 4 9 15 9 11 0 23 5 26 10 9 15 15 12 9 -4z m2113 -8 c-3
-8 -6 -5 -6 6 -1 11 2 17 5 13 3 -3 4 -12 1 -19z m5950 16 c-3 -3 -12 -4 -19
-1 -8 3 -5 6 6 6 11 1 17 -2 13 -5z m153 -4 c0 -5 -5 -10 -11 -10 -5 0 -7 5
-4 10 3 6 8 10 11 10 2 0 4 -4 4 -10z m-8136 -15 c3 -9 0 -15 -9 -15 -8 0 -15
7 -15 15 0 8 4 15 9 15 5 0 11 -7 15 -15z m7933 9 c-3 -3 -12 -4 -19 -1 -8 3
-5 6 6 6 11 1 17 -2 13 -5z m153 -4 c0 -5 -4 -10 -10 -10 -5 0 -10 5 -10 10 0
6 5 10 10 10 6 0 10 -4 10 -10z m-5943 -19 c-1 -11 -9 -22 -18 -24 -11 -3 -16
-13 -14 -28 1 -13 0 -16 -2 -6 -2 9 -9 17 -15 17 -8 0 31 46 49 59 1 0 1 -8 0
-18z m5740 13 c-3 -3 -12 -4 -19 -1 -8 3 -5 6 6 6 11 1 17 -2 13 -5z m323 -4
c0 -5 -5 -10 -11 -10 -5 0 -7 5 -4 10 3 6 8 10 11 10 2 0 4 -4 4 -10z m-203
-6 c-3 -3 -12 -4 -19 -1 -8 3 -5 6 6 6 11 1 17 -2 13 -5z m153 -4 c0 -5 -4
-10 -10 -10 -5 0 -10 5 -10 10 0 6 5 10 10 10 6 0 10 -4 10 -10z m-6115 -29
c-6 -5 -25 10 -25 20 0 5 6 4 14 -3 8 -7 12 -15 11 -17z m5754 13 c10 -9 -35
-3 -49 6 -11 8 -7 9 15 4 17 -4 32 -8 34 -10z m161 6 c0 -5 -7 -7 -15 -4 -8 4
-15 8 -15 10 0 2 7 4 15 4 8 0 15 -4 15 -10z m150 0 c0 -5 -4 -10 -10 -10 -5
0 -10 5 -10 10 0 6 5 10 10 10 6 0 10 -4 10 -10z m170 0 c0 -5 -5 -10 -11 -10
-5 0 -7 5 -4 10 3 6 8 10 11 10 2 0 4 -4 4 -10z m-373 -6 c-3 -3 -12 -4 -19
-1 -8 3 -5 6 6 6 11 1 17 -2 13 -5z m173 -4 c0 -5 -7 -7 -15 -4 -8 4 -15 8
-15 10 0 2 7 4 15 4 8 0 15 -4 15 -10z m-6080 -10 c0 -5 -5 -10 -11 -10 -5 0
-7 5 -4 10 3 6 8 10 11 10 2 0 4 -4 4 -10z m4898 4 c18 -5 22 -13 22 -48 0
-54 25 -157 49 -204 26 -50 66 -89 123 -118 45 -23 80 -55 45 -41 -9 3 -19 2
-22 -3 -4 -6 -30 -10 -58 -10 -132 0 -240 129 -253 301 -9 118 11 145 94 123z
m843 -8 c-9 -11 -9 -15 1 -19 7 -2 11 -7 8 -10 -3 -3 -11 -2 -18 2 -14 8 -6
41 10 41 6 0 6 -6 -1 -14z m289 10 c0 -2 -7 -6 -15 -10 -8 -3 -15 -1 -15 4 0
6 7 10 15 10 8 0 15 -2 15 -4z m150 -6 c0 -5 -5 -10 -11 -10 -5 0 -7 5 -4 10
3 6 8 10 11 10 2 0 4 -4 4 -10z m-30 -4 c0 -2 -7 -6 -15 -10 -8 -3 -15 -1 -15
4 0 6 7 10 15 10 8 0 15 -2 15 -4z m150 -6 c0 -5 -5 -10 -11 -10 -5 0 -7 5 -4
10 3 6 8 10 11 10 2 0 4 -4 4 -10z m-6141 -17 c-9 -10 -8 -18 2 -30 13 -16 12
-17 -3 -4 -22 16 -24 48 -3 48 11 0 12 -4 4 -14z m5654 10 c-7 -2 -19 -2 -25
0 -7 3 -2 5 12 5 14 0 19 -2 13 -5z m281 -1 c3 -5 -1 -9 -9 -9 -8 0 -15 4 -15
9 0 4 4 8 9 8 6 0 12 -4 15 -8z m-167 -8 c-3 -3 -12 -4 -19 -1 -8 3 -5 6 6 6
11 1 17 -2 13 -5z m118 -4 c3 -5 -1 -10 -9 -10 -9 0 -16 5 -16 10 0 6 4 10 9
10 6 0 13 -4 16 -10z m385 6 c0 -3 -4 -8 -10 -11 -5 -3 -10 -1 -10 4 0 6 5 11
10 11 6 0 10 -2 10 -4z m-547 -13 c-7 -2 -19 -2 -25 0 -7 3 -2 5 12 5 14 0 19
-2 13 -5z m282 -3 c3 -5 -1 -10 -9 -10 -9 0 -16 5 -16 10 0 6 4 10 9 10 6 0
13 -4 16 -10z m-8282 -40 c-7 -8 -22 24 -16 34 4 5 10 1 13 -10 4 -10 6 -21 3
-24z m7487 36 c0 -2 -7 -7 -16 -10 -8 -3 -12 -2 -9 4 6 10 25 14 25 6z m344
-7 c-3 -6 0 -15 7 -20 10 -6 8 -9 -8 -9 -25 0 -29 10 -11 28 15 15 21 16 12 1z
m126 7 c0 -2 -7 -6 -15 -10 -8 -3 -15 -1 -15 4 0 6 7 10 15 10 8 0 15 -2 15
-4z m163 -3 c-7 -2 -19 -2 -25 0 -7 3 -2 5 12 5 14 0 19 -2 13 -5z m-5973 -7
c0 -3 -4 -8 -10 -11 -5 -3 -10 -1 -10 4 0 6 5 11 10 11 6 0 10 -2 10 -4z
m5917 -2 c-3 -3 -12 -4 -19 -1 -8 3 -5 6 6 6 11 1 17 -2 13 -5z m170 0 c-3 -3
-12 -4 -19 -1 -8 3 -5 6 6 6 11 1 17 -2 13 -5z m117 -2 c3 -5 -1 -9 -9 -9 -8
0 -12 4 -9 9 3 4 7 8 9 8 2 0 6 -4 9 -8z m-6104 -10 c0 -5 -6 -17 -14 -27 -13
-18 -14 -18 -9 8 5 24 23 39 23 19z m5295 -2 c-3 -5 -16 -10 -28 -9 -21 0 -21
1 -2 9 28 12 37 12 30 0z m368 3 c-7 -2 -19 -2 -25 0 -7 3 -2 5 12 5 14 0 19
-2 13 -5z m107 -3 c13 -8 13 -10 -2 -10 -9 0 -20 5 -23 10 -8 13 5 13 25 0z
m167 4 c-3 -3 -12 -4 -19 -1 -8 3 -5 6 6 6 11 1 17 -2 13 -5z m1403 -5 c0 -24
-43 -109 -56 -109 -7 0 -29 7 -47 16 l-35 17 22 25 c11 13 39 33 61 43 48 21
55 22 55 8z m-9537 -33 c-3 -4 -9 -2 -14 5 -13 22 -11 31 5 17 8 -7 12 -17 9
-22z m8082 24 c-3 -5 -10 -10 -16 -10 -5 0 -9 5 -9 10 0 6 7 10 16 10 8 0 12
-4 9 -10z m172 4 c-3 -3 -12 -4 -19 -1 -8 3 -5 6 6 6 11 1 17 -2 13 -5z
m-6102 -14 c-3 -5 -11 -10 -16 -10 -6 0 -7 5 -4 10 3 6 11 10 16 10 6 0 7 -4
4 -10z m5772 4 c-3 -3 -12 -4 -19 -1 -8 3 -5 6 6 6 11 1 17 -2 13 -5z m113 -3
c0 -11 -59 -26 -67 -17 -4 3 3 6 15 6 12 0 22 5 22 10 0 6 7 10 15 10 8 0 15
-4 15 -9z m167 3 c-3 -3 -12 -4 -19 -1 -8 3 -5 6 6 6 11 1 17 -2 13 -5z m-47
-14 c0 -5 -7 -10 -15 -10 -8 0 -15 5 -15 10 0 6 7 10 15 10 8 0 15 -4 15 -10z
m500 0 c0 -5 -4 -10 -10 -10 -5 0 -10 5 -10 10 0 6 5 10 10 10 6 0 10 -4 10
-10z m-1280 -15 c-14 -8 -29 -14 -35 -14 -5 0 1 6 15 14 14 8 30 14 35 14 6 0
-1 -6 -15 -14z m139 11 c-12 -11 -129 -53 -129 -46 0 5 26 17 58 28 56 20 79
26 71 18z m591 -6 c12 -8 11 -10 -7 -10 -13 0 -23 5 -23 10 0 13 11 13 30 0z
m170 6 c0 -2 -7 -6 -15 -10 -8 -3 -15 -1 -15 4 0 6 7 10 15 10 8 0 15 -2 15
-4z m-7973 -28 c-3 -8 -6 -5 -6 6 -1 11 2 17 5 13 3 -3 4 -12 1 -19z m7453 -9
c-14 -25 -17 -24 -14 4 3 30 3 29 14 22 7 -4 7 -13 0 -26z m190 21 c0 -5 -7
-7 -15 -4 -8 4 -15 8 -15 10 0 2 7 4 15 4 8 0 15 -4 15 -10z m285 0 c3 -5 -3
-10 -14 -10 -12 0 -21 5 -21 10 0 6 6 10 14 10 8 0 18 -4 21 -10z m-8175 -4
c0 -3 -4 -8 -10 -11 -5 -3 -10 -1 -10 4 0 6 5 11 10 11 6 0 10 -2 10 -4z
m7840 -6 c13 -8 13 -10 -2 -10 -9 0 -20 5 -23 10 -8 13 5 13 25 0z m167 4 c-3
-3 -12 -4 -19 -1 -8 3 -5 6 6 6 11 1 17 -2 13 -5z m123 -10 c0 -2 -9 -4 -20
-4 -11 0 -20 4 -20 9 0 5 9 7 20 4 11 -3 20 -7 20 -9z m155 6 c3 -5 -1 -10
-10 -10 -9 0 -13 5 -10 10 3 6 8 10 10 10 2 0 7 -4 10 -10z m-480 -19 c-4 -3
-9 -5 -11 -4 -2 2 -19 -6 -38 -16 -35 -20 -53 -18 -33 4 6 6 19 10 29 7 12 -3
18 1 18 11 0 10 6 13 20 10 12 -3 18 -8 15 -12z m139 -2 c-27 -11 -64 -11 -64
0 0 4 11 6 25 3 14 -2 25 0 25 7 0 6 7 8 17 4 15 -6 15 -7 -3 -14z m136 2 c0
-10 -26 -9 -36 2 -4 4 2 7 14 7 12 0 22 -4 22 -9z m163 2 c-7 -2 -19 -2 -25 0
-7 3 -2 5 12 5 14 0 19 -2 13 -5z m-828 -22 c-22 -10 -51 -21 -65 -25 -22 -7
-21 -5 6 12 32 20 57 29 84 30 8 0 -3 -7 -25 -17z m455 0 c0 -10 -67 -30 -74
-23 -14 14 -4 24 19 18 14 -4 25 -3 24 1 -3 17 2 22 16 17 8 -4 15 -9 15 -13z
m155 9 c19 -8 19 -9 -2 -9 -12 -1 -25 4 -28 9 -7 12 2 12 30 0z m165 0 c-19
-13 -30 -13 -30 0 0 6 10 10 23 10 18 0 19 -2 7 -10z m167 4 c-3 -3 -12 -4
-19 -1 -8 3 -5 6 6 6 11 1 17 -2 13 -5z m-1037 -8 c0 -2 -7 -7 -16 -10 -8 -3
-12 -2 -9 4 6 10 25 14 25 6z m659 -17 c-14 -8 -29 -3 -29 11 0 4 9 6 21 3 15
-4 17 -8 8 -14z m166 11 c3 -5 -1 -10 -9 -10 -8 0 -18 5 -21 10 -3 6 1 10 9
10 8 0 18 -4 21 -10z m162 4 c-3 -3 -12 -4 -19 -1 -8 3 -5 6 6 6 11 1 17 -2
13 -5z m-8257 -14 c0 -5 -5 -10 -11 -10 -5 0 -7 5 -4 10 3 6 8 10 11 10 2 0 4
-4 4 -10z m7642 -5 c0 -5 -5 -11 -11 -13 -6 -2 -11 4 -11 13 0 9 5 15 11 13 6
-2 11 -8 11 -13z m408 0 c0 -2 -7 -5 -15 -9 -9 -3 -15 0 -15 9 0 9 6 12 15 9
8 -4 15 -7 15 -9z m165 5 c3 -5 -1 -10 -9 -10 -8 0 -18 5 -21 10 -3 6 1 10 9
10 8 0 18 -4 21 -10z m-475 -22 c0 -13 -32 -6 -37 9 -3 7 3 9 16 6 12 -3 21
-10 21 -15z m420 12 c12 -8 11 -10 -7 -10 -13 0 -23 5 -23 10 0 13 11 13 30 0z
m170 6 c0 -11 -19 -15 -25 -6 -3 5 1 10 9 10 9 0 16 -2 16 -4z m-8380 -16 c0
-5 -4 -10 -9 -10 -6 0 -13 5 -16 10 -3 6 1 10 9 10 9 0 16 -4 16 -10z m8167
-6 c2 -6 -3 -11 -12 -11 -8 0 -15 7 -15 15 0 15 22 12 27 -4z m163 6 c12 -8
11 -10 -7 -10 -13 0 -23 5 -23 10 0 13 11 13 30 0z m-892 -7 c-10 -2 -18 -9
-18 -14 0 -5 -7 -9 -15 -9 -16 0 -20 12 -8 23 3 4 18 6 32 6 17 -1 20 -3 9 -6z
m841 -14 c-15 -9 -32 -2 -24 11 3 5 13 6 21 3 12 -4 13 -8 3 -14z m175 13 c2
-4 -4 -9 -15 -9 -11 -1 -17 2 -14 8 7 11 22 12 29 1z m-926 -23 c12 -5 22 -14
22 -20 0 -6 9 -9 20 -6 20 5 50 -15 50 -33 0 -12 -55 -3 -95 15 -69 30 -85 39
-85 47 0 5 5 6 10 3 6 -3 10 -1 10 5 0 11 15 9 68 -11z m592 11 c12 -8 11 -10
-7 -10 -13 0 -23 5 -23 10 0 13 11 13 30 0z m-6020 -5 c0 -2 -10 -10 -22 -16
-21 -11 -22 -11 -9 4 13 16 31 23 31 12z m1756 -27 c-1 -12 -6 -23 -13 -25
-13 -5 -27 32 -18 46 10 17 32 1 31 -21z m3528 16 c4 -10 1 -14 -6 -12 -15 5
-23 28 -10 28 5 0 13 -7 16 -16z m861 6 c3 -5 -3 -10 -14 -10 -12 0 -21 5 -21
10 0 6 6 10 14 10 8 0 18 -4 21 -10z m162 4 c-3 -3 -12 -4 -19 -1 -8 3 -5 6 6
6 11 1 17 -2 13 -5z m108 -4 c3 -5 1 -10 -4 -10 -6 0 -11 5 -11 10 0 6 2 10 4
10 3 0 8 -4 11 -10z m-8525 -12 c0 6 5 12 10 12 19 0 10 -17 -15 -28 -20 -9
-25 -9 -25 2 0 20 13 28 22 14 6 -10 8 -10 8 0z m2310 2 c0 -5 -5 -10 -11 -10
-5 0 -7 5 -4 10 3 6 8 10 11 10 2 0 4 -4 4 -10z m5050 0 c0 -5 -5 -10 -11 -10
-5 0 -7 5 -4 10 3 6 8 10 11 10 2 0 4 -4 4 -10z m-7250 -10 c0 -5 -5 -10 -11
-10 -5 0 -7 5 -4 10 3 6 8 10 11 10 2 0 4 -4 4 -10z m8210 0 c0 -5 -6 -10 -12
-10 -7 0 -25 -7 -40 -14 -26 -14 -28 -13 -28 5 0 16 5 18 25 13 15 -4 25 -2
25 5 0 6 7 11 15 11 8 0 15 -4 15 -10z m173 3 c-7 -2 -19 -2 -25 0 -7 3 -2 5
12 5 14 0 19 -2 13 -5z m-1043 -14 c0 -5 -4 -7 -10 -4 -5 3 -10 2 -10 -3 0
-11 -47 -22 -55 -13 -4 3 9 11 27 17 42 16 48 16 48 3z m990 1 c12 -8 11 -10
-7 -10 -13 0 -23 5 -23 10 0 13 11 13 30 0z m-50 -10 c12 -8 11 -10 -7 -10
-13 0 -23 5 -23 10 0 13 11 13 30 0z m537 4 c-3 -3 -12 -4 -19 -1 -8 3 -5 6 6
6 11 1 17 -2 13 -5z m-8823 -19 c-4 -8 -10 -13 -14 -10 -9 6 -60 -44 -60 -57
0 -5 5 -8 11 -8 5 0 7 -4 4 -10 -8 -13 -52 -13 -60 -1 -3 5 -1 12 4 16 6 3 8
13 5 23 -5 13 -4 14 4 3 7 -10 14 -11 31 -1 19 10 20 14 9 28 -8 10 -9 13 -1
9 6 -4 14 -3 18 3 4 6 10 8 14 6 4 -3 13 -1 21 5 20 12 20 11 14 -6z m8246 -5
c0 -5 -6 -10 -14 -10 -8 0 -18 5 -21 10 -3 6 3 10 14 10 12 0 21 -4 21 -10z
m120 -11 c0 -5 -3 -8 -7 -7 -5 1 -21 -2 -36 -7 -19 -5 -32 -3 -40 5 -10 10 -6
12 15 8 17 -3 29 0 32 8 6 14 36 8 36 -7z m587 15 c-3 -3 -12 -4 -19 -1 -8 3
-5 6 6 6 11 1 17 -2 13 -5z m-77 -15 c-100 -19 -110 -20 -110 -10 0 11 41 18
110 18 l45 1 -45 -9z m-8955 -9 c3 -5 1 -10 -4 -10 -6 0 -11 5 -11 10 0 6 2
10 4 10 3 0 8 -4 11 -10z m319 -5 c3 -8 1 -15 -4 -15 -6 0 -10 7 -10 15 0 8 2
15 4 15 2 0 6 -7 10 -15z m7074 -3 c-10 -2 -18 -8 -18 -13 0 -6 -5 -7 -11 -4
-6 5 -4 12 8 20 10 7 22 10 28 7 5 -4 2 -8 -7 -10z m-5148 -10 c0 -5 -7 -9
-15 -9 -8 0 -12 4 -9 9 3 4 9 8 15 8 5 0 9 -4 9 -8z m-2160 -12 c0 -5 -5 -10
-11 -10 -5 0 -7 5 -4 10 3 6 8 10 11 10 2 0 4 -4 4 -10z m2200 0 c0 -5 -2 -10
-4 -10 -3 0 -8 5 -11 10 -3 6 -1 10 4 10 6 0 11 -4 11 -10z m5065 -1 c11 -16
1 -19 -13 -3 -7 8 -8 14 -3 14 5 0 13 -5 16 -11z m85 -8 c0 -5 -9 -11 -20 -14
-22 -6 -28 8 -7 16 19 8 27 8 27 -2z m-7366 -36 c3 -9 0 -15 -9 -15 -9 0 -12
6 -9 15 4 8 7 15 9 15 2 0 5 -7 9 -15z m7376 -4 c0 -16 -28 -33 -35 -21 -5 8
-11 8 -21 -1 -8 -6 -14 -7 -14 -2 0 11 37 31 58 32 6 1 12 -3 12 -8z m-5305
-21 c-3 -5 -10 -10 -16 -10 -5 0 -9 5 -9 10 0 6 7 10 16 10 8 0 12 -4 9 -10z
m5315 -20 c0 -5 -4 -10 -10 -10 -5 0 -10 5 -10 10 0 6 5 10 10 10 6 0 10 -4
10 -10z m-7417 -19 c-3 -13 -11 -17 -24 -14 -19 5 -19 6 3 18 13 7 24 13 25
14 0 1 -1 -7 -4 -18z m120 -18 c-7 -2 -19 -2 -25 0 -7 3 -2 5 12 5 14 0 19 -2
13 -5z m2120 -8 c-3 -9 -8 -14 -10 -11 -3 3 -2 9 2 15 9 16 15 13 8 -4z m6850
-25 c4 -17 3 -19 -9 -9 -8 6 -14 18 -14 26 0 20 16 8 23 -17z m-6797 -27 c1
-6 -3 -14 -9 -16 -8 -3 -12 8 -13 30 0 29 1 31 10 16 6 -10 11 -23 12 -30z
m6414 43 c0 -11 -19 -15 -25 -6 -3 5 1 10 9 10 9 0 16 -2 16 -4z m-8588 -41
c11 -14 10 -25 -2 -25 -5 0 -9 4 -7 9 1 5 -2 9 -6 10 -9 0 -37 27 -37 35 0 8
43 -16 52 -29z m8898 20 c11 -13 10 -14 -4 -9 -9 3 -16 10 -16 15 0 13 6 11
20 -6z m45 6 c3 -5 1 -12 -4 -15 -5 -3 -11 1 -15 9 -6 16 9 21 19 6z m-9008
-19 c9 -15 7 -21 -9 -31 -11 -7 -17 -8 -14 -2 4 5 2 12 -3 16 -10 6 -4 35 8
35 3 0 11 -8 18 -18z m2283 -48 c0 -7 -7 -14 -15 -18 -12 -4 -13 -2 -7 12 5 9
7 24 5 32 -4 13 -3 13 6 0 6 -8 11 -20 11 -26z m-125 16 c3 -5 1 -10 -4 -10
-6 0 -11 5 -11 10 0 6 2 10 4 10 3 0 8 -4 11 -10z m-2005 -34 c0 -2 3 -11 6
-20 3 -9 1 -16 -5 -16 -6 0 -11 6 -11 14 0 8 -6 17 -12 19 -8 3 -6 6 5 6 9 1
17 -1 17 -3z m-144 -38 c4 -5 -4 -8 -17 -6 -12 1 -24 8 -26 15 -5 14 34 6 43
-9z m2137 -3 c-3 -9 -8 -14 -10 -11 -3 3 -2 9 2 15 9 16 15 13 8 -4z m-2043 1
c0 -2 -11 -6 -25 -8 -14 -3 -25 -1 -25 3 0 5 11 9 25 9 14 0 25 -2 25 -4z
m2046 -38 c-9 -12 -16 -19 -16 -15 0 11 24 47 28 42 2 -2 -3 -14 -12 -27z
m-2019 -4 c-3 -3 -12 -4 -19 -1 -8 3 -5 6 6 6 11 1 17 -2 13 -5z m2229 -39
c-7 -27 -26 -35 -26 -10 0 8 5 15 10 15 6 0 10 8 10 17 0 9 3 14 6 10 4 -3 4
-18 0 -32z m-2245 -2 c13 -16 12 -17 -3 -4 -10 7 -18 15 -18 17 0 8 8 3 21
-13z m44 7 c19 -8 19 -9 -2 -9 -12 -1 -25 4 -28 9 -7 12 2 12 30 0z m-55 -30
c0 -5 9 -10 20 -10 11 0 20 -7 20 -15 0 -8 -4 -15 -10 -15 -5 0 -10 6 -10 13
0 7 -3 8 -8 2 -4 -5 -13 -11 -21 -13 -11 -2 -12 0 -3 11 9 10 9 16 0 25 -9 9
-9 12 0 12 7 0 12 -4 12 -10z m-66 -26 c3 -8 2 -12 -4 -9 -6 3 -10 10 -10 16
0 14 7 11 14 -7z m149 1 c-3 -9 -8 -14 -10 -11 -3 3 -2 9 2 15 9 16 15 13 8
-4z m1973 0 c12 -9 14 -14 5 -15 -7 0 -11 -6 -9 -12 3 -7 -3 -31 -13 -53 -18
-39 -19 -39 -13 -7 5 31 -9 45 -20 20 -3 -7 -2 0 1 17 6 28 6 29 -11 12 -26
-26 -43 -20 -18 6 12 13 22 29 22 35 0 17 32 15 56 -3z m-1995 -37 c-1 -5 -2
-8 -3 -7 -2 0 -15 -4 -30 -10 -32 -12 -35 -9 -12 14 16 16 46 17 45 3z m59
-14 c0 -3 -5 -2 -10 1 -6 3 -13 -1 -16 -9 -3 -9 -13 -16 -22 -16 -13 0 -13 2
3 13 11 9 15 19 10 26 -6 10 -3 11 14 2 11 -7 21 -14 21 -17z m-95 -34 c-3 -5
-11 -10 -16 -10 -6 0 -7 5 -4 10 3 6 11 10 16 10 6 0 7 -4 4 -10z m2040 -9
c-3 -5 -1 -12 5 -16 6 -4 8 -11 5 -16 -4 -5 -3 -14 1 -20 4 -7 9 -8 13 -1 4 7
13 5 25 -4 14 -10 16 -14 5 -14 -12 0 -12 -2 1 -10 12 -8 12 -12 2 -18 -11 -7
-10 -11 1 -20 8 -7 13 -25 12 -41 -1 -17 2 -28 7 -25 4 3 8 12 8 21 0 13 3 13
15 3 19 -16 20 -41 1 -34 -9 3 -17 -3 -21 -15 -5 -18 -8 -19 -21 -7 -8 8 -14
19 -14 25 0 6 -7 8 -15 5 -11 -5 -13 -2 -8 11 5 15 2 17 -18 12 -22 -5 -22 -5
-6 7 12 10 17 25 15 49 -1 20 -6 33 -12 30 -5 -3 -6 -1 -2 6 10 15 -13 43 -27
34 -5 -3 -8 -2 -5 3 3 5 8 17 11 27 4 9 11 17 17 17 6 0 9 -4 5 -9z m-1955
-57 c0 -2 -12 -4 -27 -4 -21 0 -24 3 -14 9 13 8 41 5 41 -5z m183 -11 c-2 -14
3 -20 14 -19 24 2 27 -21 4 -29 -12 -3 -21 -11 -21 -16 0 -12 14 -11 27 2 13
13 36 3 27 -12 -3 -5 -9 -7 -14 -4 -5 3 -11 1 -15 -5 -3 -5 -1 -10 5 -10 18 0
49 -42 50 -67 0 -16 -8 -25 -25 -29 -35 -9 -56 11 -45 41 7 20 6 22 -11 18
-10 -3 -19 -9 -19 -14 0 -5 -6 -9 -14 -9 -17 0 -28 24 -20 45 5 11 2 13 -10 9
-9 -3 -13 -10 -10 -15 3 -5 -3 -9 -12 -9 -16 0 -16 2 1 20 10 12 24 19 30 16
19 -7 38 11 32 29 -4 10 -12 13 -19 9 -10 -6 -10 -5 -1 7 12 15 13 18 13 50 0
14 5 19 18 17 10 -2 16 -12 15 -25z m-281 -15 c6 -13 13 -28 14 -34 1 -6 5
-21 9 -33 16 -53 -21 1 -45 64 -12 32 5 34 22 3z m78 3 c0 -5 -12 -11 -27 -14
-26 -5 -26 -4 -8 9 22 16 35 18 35 5z m155 -11 c3 -5 1 -10 -4 -10 -6 0 -11 5
-11 10 0 6 2 10 4 10 3 0 8 -4 11 -10z m1818 -16 c-7 -19 -10 -18 -16 5 -3 13
-1 18 9 14 7 -2 10 -11 7 -19z m-1966 0 c-3 -3 -12 -4 -19 -1 -8 3 -5 6 6 6
11 1 17 -2 13 -5z m2063 -4 c0 -5 -5 -10 -11 -10 -5 0 -7 5 -4 10 3 6 8 10 11
10 2 0 4 -4 4 -10z m-1930 -9 c0 -6 -4 -13 -10 -16 -5 -3 -10 1 -10 9 0 9 5
16 10 16 6 0 10 -4 10 -9z m2133 -16 c-3 -9 -8 -14 -10 -11 -3 3 -2 9 2 15 9
16 15 13 8 -4z m-135 -39 c-2 -1 -11 -7 -20 -15 -15 -11 -17 -10 -15 7 1 13 7
18 19 14 11 -2 17 -5 16 -6z m-2008 -31 c0 -2 -9 -9 -20 -15 -12 -6 -20 -7
-20 -1 0 5 8 12 18 14 9 3 18 5 20 6 1 0 2 -1 2 -4z m2010 -5 c0 -5 -2 -10 -4
-10 -3 0 -8 5 -11 10 -3 6 -1 10 4 10 6 0 11 -4 11 -10z m-2115 -10 c-3 -5
-12 -10 -18 -10 -7 0 -6 4 3 10 19 12 23 12 15 0z m40 -10 c-3 -5 -12 -10 -18
-10 -7 0 -6 4 3 10 19 12 23 12 15 0z m108 -13 c-5 -11 -7 -11 -28 1 -19 11
-18 12 5 8 14 -1 24 -6 23 -9z m1909 0 c4 -7 5 -20 2 -31 -4 -12 -2 -16 5 -12
6 4 11 0 11 -8 0 -9 -4 -16 -8 -16 -4 0 -9 -14 -10 -32 -3 -39 -4 -39 -22 -28
-12 7 -13 15 -3 40 10 26 9 30 -6 30 -14 0 -17 6 -13 25 2 15 0 25 -7 25 -6 0
-11 3 -11 8 0 12 54 11 62 -1z m78 -22 c-7 -9 -15 -13 -17 -11 -7 7 7 26 19
26 6 0 6 -6 -2 -15z m-1860 -5 c0 -5 -5 -10 -11 -10 -5 0 -7 5 -4 10 3 6 8 10
11 10 2 0 4 -4 4 -10z m-30 -5 c0 -2 -10 -10 -22 -16 -21 -11 -22 -11 -9 4 13
16 31 23 31 12z m-102 -26 c-2 -6 -7 -10 -12 -9 -5 1 -12 -4 -17 -11 -4 -8
-11 -10 -15 -6 -9 9 15 37 33 37 8 0 13 -5 11 -11z m145 -7 c10 -10 14 -22 10
-25 -3 -4 2 -7 11 -7 12 0 16 -5 12 -16 -3 -8 -2 -12 4 -9 6 3 10 -1 10 -9 0
-20 -19 -21 -26 -1 -5 11 -11 12 -24 5 -29 -16 -46 -12 -24 6 18 15 18 15 -8
9 -19 -3 -28 -1 -29 7 0 8 -3 6 -7 -3 -5 -11 -13 -14 -26 -9 -18 6 -16 8 11
20 17 8 29 19 26 26 -4 10 7 17 38 23 3 0 13 -7 22 -17z m1857 8 c0 -5 -5 -10
-11 -10 -5 0 -7 5 -4 10 3 6 8 10 11 10 2 0 4 -4 4 -10z m-1950 -20 c0 -5 -2
-10 -4 -10 -3 0 -8 5 -11 10 -3 6 -1 10 4 10 6 0 11 -4 11 -10z m-111 -56 c-6
-8 -17 -14 -23 -14 -6 0 -4 5 4 10 8 5 11 10 7 10 -5 0 -5 5 -2 10 4 6 11 8
16 4 6 -4 6 -11 -2 -20z m121 -20 c0 -8 -5 -12 -10 -9 -6 4 -8 11 -5 16 9 14
15 11 15 -7z m101 -1 c10 -11 10 -14 2 -9 -8 4 -13 2 -13 -8 0 -22 -13 -26
-46 -16 -16 4 -22 9 -14 9 13 1 13 2 0 11 -12 8 -11 10 7 10 12 0 25 5 28 10
9 15 21 12 36 -7z m1615 -28 c-11 -8 -25 -15 -30 -15 -6 1 0 7 14 15 32 19 40
18 16 0z m-1576 -5 c0 -5 -4 -10 -10 -10 -5 0 -10 5 -10 10 0 6 5 10 10 10 6
0 10 -4 10 -10z m-14 -41 c12 -25 13 -31 3 -27 -43 16 -59 18 -59 9 0 -6 -4
-11 -10 -11 -5 0 -7 7 -4 15 4 10 0 15 -12 15 -15 0 -16 2 -5 13 11 10 14 10
18 0 3 -7 16 -13 29 -13 25 0 33 15 12 23 -10 4 -10 6 -1 6 7 1 20 -13 29 -30z
m34 -9 c6 -11 7 -20 3 -20 -5 0 -14 9 -21 20 -7 11 -8 20 -2 20 5 0 14 -9 20
-20z m1438 8 c-2 -6 -13 -15 -25 -19 -17 -6 -20 -4 -16 12 3 11 14 19 25 19
11 0 18 -5 16 -12z m-64 -17 c-10 -10 -23 -16 -27 -14 -5 3 0 11 10 19 27 20
39 17 17 -5z m186 -15 c0 -7 -9 -16 -21 -19 -20 -5 -20 -5 -3 14 20 23 24 23
24 5z m-1575 -28 c-3 -13 -9 -33 -12 -45 -8 -34 -26 -28 -21 7 3 18 0 31 -9
34 -24 10 -13 26 18 26 28 0 31 -2 24 -22z m1313 8 c-10 -7 -15 -16 -11 -19 3
-4 -5 -7 -18 -7 l-24 0 25 20 c14 11 30 20 35 19 6 0 2 -6 -7 -13z m-1268 -36
c0 -11 5 -20 10 -20 6 0 10 -11 10 -24 0 -14 9 -31 20 -39 29 -20 7 -44 -57
-60 -49 -13 -50 -13 -40 5 7 10 17 18 24 18 12 0 15 7 12 28 -1 4 -5 6 -10 5
-5 -2 -9 6 -9 18 0 12 8 23 20 26 11 3 20 9 20 14 0 5 -7 6 -15 3 -8 -4 -15
-1 -15 5 0 6 4 11 10 11 5 0 7 7 4 15 -4 8 -1 15 5 15 6 0 11 -9 11 -20z
m1420 10 c0 -5 -5 -10 -11 -10 -5 0 -7 5 -4 10 3 6 8 10 11 10 2 0 4 -4 4 -10z
m17 -12 c-3 -8 -6 -5 -6 6 -1 11 2 17 5 13 3 -3 4 -12 1 -19z m-268 -8 c-13
-11 -30 -24 -37 -30 -14 -13 -35 -4 -26 11 6 10 61 37 78 38 5 1 -2 -8 -15
-19z m186 -10 c3 -5 -3 -10 -14 -10 -15 0 -19 -4 -14 -17 6 -15 5 -16 -9 -3
-14 13 -14 16 1 27 20 15 28 16 36 3z m65 1 c0 -13 -12 -20 -26 -14 -20 8 -17
19 6 20 11 1 20 -2 20 -6z m-1535 -11 c-28 -12 -37 -12 -30 0 3 6 16 10 28 9
21 0 21 -1 2 -9z m174 -7 c-3 -21 2 -33 16 -33 8 0 15 -4 15 -10 0 -14 -29 0
-40 20 -5 9 -6 20 -3 24 8 8 13 8 12 -1z m1216 -52 c-14 -12 -16 -12 -9 -1 5
8 7 24 6 35 -2 19 -2 19 9 1 9 -14 8 -21 -6 -35z m-1361 -6 c-4 -8 -11 -15
-16 -15 -6 0 -5 6 2 15 7 8 14 15 16 15 2 0 1 -7 -2 -15z m151 -33 c-4 -15 2
-22 27 -30 l33 -12 -42 4 c-23 2 -42 1 -41 -2 0 -4 0 -13 -1 -21 -1 -16 -16
-5 -16 12 0 7 -9 11 -19 9 -11 -2 -15 1 -11 8 4 6 12 9 19 7 7 -3 21 6 32 19
23 28 27 29 19 6z m1135 8 c0 -5 -4 -10 -10 -10 -5 0 -10 5 -10 10 0 6 5 10
10 10 6 0 10 -4 10 -10z m290 -10 c0 -5 -5 -10 -11 -10 -5 0 -7 5 -4 10 3 6 8
10 11 10 2 0 4 -4 4 -10z m-500 -60 c0 -5 -8 -10 -19 -10 -10 0 -24 -7 -31
-15 -7 -8 -17 -15 -23 -15 -6 0 1 11 14 24 25 25 59 34 59 16z m-1145 -30 c-3
-5 -12 -10 -18 -10 -7 0 -6 4 3 10 19 12 23 12 15 0z m1249 -14 c-3 -9 -10
-16 -15 -16 -5 0 -4 9 3 20 14 22 21 20 12 -4z m-230 -11 c-4 -8 -10 -12 -15
-9 -11 6 -2 24 11 24 5 0 7 -7 4 -15z m31 5 c3 -5 1 -10 -4 -10 -6 0 -11 5
-11 10 0 6 2 10 4 10 3 0 8 -4 11 -10z m-754 -23 c-6 -8 -8 -17 -4 -20 3 -4
-2 -7 -12 -7 -14 0 -15 -3 -5 -15 12 -14 6 -35 -10 -35 -5 0 -7 7 -4 15 5 11
2 13 -10 9 -27 -10 -18 13 17 40 36 29 45 33 28 13z m869 3 c0 -5 -4 -10 -10
-10 -5 0 -10 5 -10 10 0 6 5 10 10 10 6 0 10 -4 10 -10z m-930 -10 c0 -5 -5
-10 -11 -10 -5 0 -7 5 -4 10 3 6 8 10 11 10 2 0 4 -4 4 -10z m760 -1 c0 -6 -7
-9 -15 -5 -8 3 -15 1 -15 -4 0 -6 -9 -10 -20 -10 -10 0 -23 -7 -28 -16 -5 -9
-15 -15 -22 -12 -22 7 36 53 70 55 16 1 30 -3 30 -8z m230 -3 c0 -3 -4 -8 -10
-11 -5 -3 -10 -1 -10 4 0 6 5 11 10 11 6 0 10 -2 10 -4z m-908 -33 c-6 -2 -10
-9 -6 -14 3 -5 0 -9 -5 -9 -12 0 -14 13 -4 23 3 4 11 7 17 6 6 0 5 -3 -2 -6z
m551 -29 c-7 -20 -19 -17 -19 5 0 11 6 17 13 14 6 -3 9 -11 6 -19z m137 18 c0
-4 -10 -9 -22 -9 -18 -2 -20 0 -8 7 18 12 30 13 30 2z m-170 -16 c0 -2 -9 -6
-20 -9 -11 -3 -20 -1 -20 4 0 5 9 9 20 9 11 0 20 -2 20 -4z m95 -6 c-3 -5 -11
-10 -16 -10 -6 0 -7 5 -4 10 3 6 11 10 16 10 6 0 7 -4 4 -10z m-665 -26 c0
-14 -3 -14 -15 -4 -8 7 -15 14 -15 16 0 2 7 4 15 4 8 0 15 -7 15 -16z m505 6
c-27 -12 -35 -12 -35 0 0 6 12 10 28 9 24 0 25 -1 7 -9z m-435 -10 c11 -7 11
-10 2 -10 -7 0 -10 -5 -6 -12 4 -7 3 -8 -4 -4 -21 13 -13 -14 12 -39 l23 -23
-26 3 c-14 2 -29 4 -33 4 -4 1 -5 8 -1 16 3 10 0 15 -8 13 -8 -2 -12 3 -10 12
2 8 5 22 6 30 2 8 4 16 4 18 2 6 27 1 41 -8z m409 -18 c-14 -5 -39 6 -39 17 0
5 11 4 25 -2 13 -7 20 -14 14 -15z m71 24 c0 -3 -4 -8 -10 -11 -5 -3 -10 -1
-10 4 0 6 5 11 10 11 6 0 10 -2 10 -4z m77 -16 c10 -13 8 -16 -8 -16 -19 0
-26 16 -12 29 3 4 7 6 7 5 1 -2 7 -10 13 -18z m-710 -16 c-3 -3 -12 -4 -19 -1
-8 3 -5 6 6 6 11 1 17 -2 13 -5z m493 -4 c0 -5 -5 -10 -11 -10 -5 0 -7 5 -4
10 3 6 8 10 11 10 2 0 4 -4 4 -10z m113 -15 c-3 -9 -8 -14 -10 -11 -3 3 -2 9
2 15 9 16 15 13 8 -4z m-158 -5 c-3 -5 -14 -10 -23 -9 -14 0 -13 2 3 9 27 11
27 11 20 0z m252 -6 c-3 -3 -12 -4 -19 -1 -8 3 -5 6 6 6 11 1 17 -2 13 -5z
m-228 -25 c-22 -13 -31 -11 -17 5 7 8 17 12 22 9 4 -3 2 -9 -5 -14z m95 12 c3
-5 -1 -11 -9 -14 -9 -4 -12 -1 -8 9 6 16 10 17 17 5z m-337 -43 c-3 -8 -6 -5
-6 6 -1 11 2 17 5 13 3 -3 4 -12 1 -19z"/>
<path d="M1965 6170 c-3 -6 1 -7 9 -4 18 7 21 14 7 14 -6 0 -13 -4 -16 -10z"/>
<path d="M2804 5830 c0 -24 11 -26 20 -4 8 22 8 24 -7 24 -7 0 -13 -9 -13 -20z"/>
<path d="M3088 5024 c-9 -8 9 -34 23 -34 5 0 9 5 9 11 0 5 -4 8 -9 4 -5 -3
-11 2 -13 11 -2 9 -6 12 -10 8z"/>
<path d="M3160 4960 c0 -5 5 -10 11 -10 5 0 7 5 4 10 -3 6 -8 10 -11 10 -2 0
-4 -4 -4 -10z"/>
<path d="M3166 4903 c-6 -14 -5 -15 5 -6 7 7 10 15 7 18 -3 3 -9 -2 -12 -12z"/>
<path d="M3230 4876 c0 -9 5 -16 10 -16 6 0 10 4 10 9 0 6 -4 13 -10 16 -5 3
-10 -1 -10 -9z"/>
<path d="M3145 4860 c-3 -6 1 -7 9 -4 18 7 21 14 7 14 -6 0 -13 -4 -16 -10z"/>
<path d="M1525 5990 c3 -5 14 -10 23 -10 15 0 15 2 2 10 -20 13 -33 13 -25 0z"/>
<path d="M2317 5630 c-42 -8 -87 -44 -87 -72 0 -35 41 -108 61 -108 10 0 19
-6 19 -12 0 -9 3 -9 9 1 8 12 13 12 24 3 8 -7 39 -13 69 -13 50 -1 57 -4 72
-31 10 -16 15 -36 12 -44 -3 -9 -1 -12 4 -9 24 15 8 -48 -18 -75 -55 -54 -139
-57 -188 -6 -28 29 -81 56 -108 56 -13 0 -35 -9 -50 -21 -24 -19 -26 -27 -26
-91 0 -54 -4 -76 -17 -91 -10 -11 -12 -17 -5 -13 6 4 12 3 12 -3 0 -24 -124
-88 -136 -70 -4 6 -10 6 -19 -1 -24 -20 -79 12 -102 60 -16 36 -18 50 -10 90
7 38 13 47 25 43 12 -5 14 -1 10 15 -4 13 -2 19 6 17 17 -6 66 64 66 94 0 14
-10 44 -23 66 -29 52 -63 57 -120 19 -56 -36 -83 -68 -114 -134 -22 -49 -25
-65 -21 -145 4 -80 8 -97 38 -150 43 -76 90 -135 107 -135 7 0 13 -4 13 -8 0
-4 13 -16 30 -25 28 -17 113 -23 180 -13 14 3 35 5 47 5 12 1 28 8 37 16 8 8
19 15 23 15 5 0 36 25 68 55 33 30 63 55 67 55 5 0 8 9 8 19 0 25 20 31 79 24
38 -4 59 -1 93 16 25 11 54 21 65 21 11 0 32 9 46 20 14 11 30 20 36 20 15 0
71 89 71 111 0 10 5 19 12 21 20 7 -18 180 -52 241 -17 28 -35 63 -40 77 -24
59 -171 107 -273 90z m162 -73 c45 -30 97 -100 86 -116 -3 -6 -1 -11 6 -11 7
0 9 -10 7 -25 -3 -14 -2 -25 3 -25 14 0 15 -44 3 -87 -7 -24 -8 -40 -3 -37 12
7 11 1 -4 -27 -26 -50 -50 -79 -63 -79 -8 0 -14 -4 -14 -9 0 -13 -93 -41 -138
-41 -22 0 -61 9 -86 21 -26 11 -54 18 -62 15 -7 -3 -17 -23 -20 -46 -16 -98
-109 -183 -214 -195 -48 -6 -67 -3 -119 20 -73 30 -102 59 -138 134 -53 112
-37 272 34 330 57 47 81 57 97 40 7 -8 16 -26 20 -41 6 -28 5 -31 -47 -69 -29
-22 -67 -92 -69 -125 -2 -29 19 -95 41 -130 10 -17 39 -40 64 -52 43 -20 48
-21 103 -6 138 36 203 119 176 226 -8 31 -8 46 0 56 9 10 13 11 19 0 7 -10 9
-10 9 0 0 21 19 13 26 -10 3 -13 22 -35 41 -50 30 -23 46 -28 92 -28 66 0 147
34 179 75 27 34 38 91 25 126 -7 18 -7 31 -1 37 6 6 6 12 -1 16 -6 4 -11 2
-11 -5 0 -7 -9 -2 -20 11 -11 13 -20 26 -20 29 0 16 -67 33 -126 32 -71 0 -82
8 -65 52 7 18 19 27 38 29 51 6 111 -8 152 -35z"/>
<path d="M2615 4900 c-128 -13 -244 -49 -353 -109 -173 -96 -252 -177 -298
-306 -25 -71 -14 -192 19 -216 5 -3 8 -8 7 -10 -4 -11 22 -60 42 -79 36 -34
108 -63 168 -67 113 -8 231 -3 259 12 16 8 31 12 34 9 3 -3 25 4 49 16 24 12
60 31 80 41 46 24 47 24 58 -3 8 -21 9 -21 9 -3 1 11 13 29 27 40 28 21 30 22
64 24 11 0 20 7 20 14 0 8 11 19 25 25 15 7 25 20 25 32 0 11 5 20 11 20 16 0
59 48 59 66 0 7 6 14 13 14 24 0 37 49 38 136 0 47 4 97 9 112 5 21 3 34 -11
51 -11 13 -19 33 -19 45 0 11 -16 39 -35 61 -19 22 -35 48 -35 59 0 14 -3 16
-14 7 -10 -8 -21 -9 -42 0 -38 14 -122 18 -209 9z m31 -42 c3 -4 12 -4 20 -1
8 3 14 0 14 -7 0 -6 5 -8 11 -4 16 9 90 -16 117 -40 23 -20 53 -70 72 -121 9
-23 7 -25 -16 -25 -19 0 -28 7 -35 30 -6 17 -15 30 -20 30 -5 0 -9 7 -9 15 0
9 -9 15 -21 15 -14 0 -19 5 -16 14 4 10 -14 13 -96 11 -79 -2 -119 -8 -180
-29 -100 -33 -253 -110 -314 -156 -94 -71 -134 -170 -99 -244 22 -46 20 -56
-9 -56 -18 0 -25 5 -25 19 0 11 -7 27 -16 35 -9 10 -18 41 -21 79 -12 153 111
280 389 400 61 27 165 42 184 26 8 -7 14 -8 13 -3 -1 5 -1 13 0 17 1 9 47 5
57 -5z m96 -191 c5 -10 13 -15 19 -12 12 8 -2 -28 -15 -37 -8 -5 -7 -16 0 -37
13 -33 3 -51 -29 -51 -10 0 -16 -4 -12 -9 8 -14 -50 -52 -68 -45 -9 3 -20 -2
-26 -14 -13 -24 -77 -56 -93 -46 -7 5 -8 3 -3 -6 6 -10 3 -12 -13 -8 -12 4
-20 1 -19 -5 2 -11 -163 -68 -196 -67 -12 1 -37 1 -56 2 -32 1 -33 2 -15 15
14 10 16 16 7 21 -20 12 -29 102 -12 113 10 6 10 9 2 9 -7 0 -13 4 -13 9 0 5
10 7 23 5 12 -2 16 -2 10 2 -7 3 -13 10 -13 16 0 5 6 8 13 5 17 -5 88 33 81
44 -3 5 0 9 6 9 6 0 18 7 26 15 9 8 25 15 36 15 12 0 30 7 40 17 11 9 18 11
18 5 0 -16 27 -15 37 1 11 17 87 40 91 27 6 -16 20 -12 26 8 8 25 133 24 148
-1z m147 -39 c0 -13 -3 -17 -6 -10 -2 6 -16 12 -29 12 -13 0 -24 5 -24 10 0 6
14 10 30 10 25 0 30 -4 29 -22z m-54 -28 c-5 -15 -3 -18 9 -14 8 3 17 13 19
22 3 12 5 10 6 -5 0 -13 -4 -23 -10 -23 -7 0 -9 -10 -5 -25 5 -19 0 -32 -18
-49 -14 -15 -20 -28 -14 -34 13 -13 -39 -72 -63 -72 -11 0 -18 -4 -14 -10 5
-9 -53 -46 -67 -42 -3 1 -12 -5 -18 -13 -14 -17 -65 -21 -55 -5 12 20 -12 9
-36 -16 -17 -18 -19 -23 -6 -18 34 13 16 -6 -25 -26 -50 -24 -70 -26 -62 -5 4
9 19 15 35 15 32 0 36 14 14 44 -14 18 -15 18 -15 2 0 -10 -15 -23 -37 -33
-21 -9 -32 -18 -25 -20 6 -3 12 -12 12 -21 0 -13 -5 -12 -19 7 -15 19 -16 29
-8 42 18 28 2 32 -39 10 -31 -17 -34 -21 -16 -21 12 0 22 -6 22 -14 0 -8 9
-18 20 -21 29 -9 24 -20 -14 -32 -42 -13 -52 -6 -29 20 17 18 17 19 -2 16 -12
-3 -22 -14 -25 -29 -5 -24 -7 -25 -95 -24 -96 0 -157 16 -137 36 8 8 7 19 -4
40 -19 37 -13 45 18 24 74 -52 353 31 561 168 90 59 127 96 127 127 0 11 5 19
11 19 6 0 8 -9 4 -20z m-725 -335 c0 -16 -35 -21 -45 -6 -4 8 9 15 38 20 4 0
7 -6 7 -14z"/>
<path d="M2710 4570 c0 -5 5 -10 10 -10 6 0 10 5 10 10 0 6 -4 10 -10 10 -5 0
-10 -4 -10 -10z"/>
<path d="M2746 4459 c-11 -11 -15 -19 -9 -19 12 0 38 28 32 34 -2 2 -13 -5
-23 -15z"/>
<path d="M2758 4435 c-27 -20 -48 -37 -48 -40 0 -4 86 51 105 67 26 23 -16 3
-57 -27z"/>
<path d="M2670 4424 c0 -8 5 -12 10 -9 6 4 8 11 5 16 -9 14 -15 11 -15 -7z"/>
<path d="M2680 4380 c0 -5 5 -10 10 -10 6 0 10 5 10 10 0 6 -4 10 -10 10 -5 0
-10 -4 -10 -10z"/>
<path d="M2550 4370 c-9 -6 -10 -10 -3 -10 6 0 15 5 18 10 8 12 4 12 -15 0z"/>
<path d="M2498 4353 c7 -3 16 -2 19 1 4 3 -2 6 -13 5 -11 0 -14 -3 -6 -6z"/>
<path d="M2620 4350 c0 -5 5 -10 10 -10 6 0 10 5 10 10 0 6 -4 10 -10 10 -5 0
-10 -4 -10 -10z"/>
<path d="M2457 4323 c-12 -11 -8 -23 8 -23 8 0 15 7 15 15 0 16 -12 20 -23 8z"/>
<path d="M2279 4283 c-1 -5 -1 -16 0 -25 1 -10 -3 -18 -9 -18 -6 0 -9 -4 -5
-9 5 -10 37 -7 55 4 6 4 8 10 5 15 -3 5 -1 11 5 15 6 4 8 11 5 16 -7 11 -54
12 -56 2z m41 -7 c0 -2 -3 -11 -6 -20 -9 -23 -24 -20 -24 4 0 11 7 20 15 20 8
0 15 -2 15 -4z"/>
<path d="M2148 4233 c6 -2 18 -2 25 0 6 3 1 5 -13 5 -14 0 -19 -2 -12 -5z"/>
<path d="M3050 4523 c1 -10 7 -29 15 -43 l14 -25 1 27 c0 32 -9 58 -21 58 -5
0 -9 -8 -9 -17z"/>
<path d="M2956 4265 c-8 -8 -18 -15 -23 -15 -4 0 -14 -9 -21 -20 -11 -18 -10
-20 8 -20 11 0 23 7 27 16 3 8 16 20 29 25 13 4 24 13 24 19 0 15 -26 12 -44
-5z"/>
<path d="M2830 4250 c0 -5 5 -10 10 -10 6 0 10 5 10 10 0 6 -4 10 -10 10 -5 0
-10 -4 -10 -10z"/>
<path d="M2788 4218 c9 -9 15 -9 24 0 9 9 7 12 -12 12 -19 0 -21 -3 -12 -12z"/>
<path d="M2840 4220 c0 -5 5 -10 11 -10 5 0 7 5 4 10 -3 6 -8 10 -11 10 -2 0
-4 -4 -4 -10z"/>
<path d="M2865 4200 c-3 -5 1 -10 9 -10 9 0 16 5 16 10 0 6 -4 10 -9 10 -6 0
-13 -4 -16 -10z"/>
<path d="M2780 4171 c-16 -30 -12 -36 10 -16 21 19 26 35 10 35 -5 0 -14 -9
-20 -19z"/>
<path d="M2700 4126 c0 -9 30 -14 35 -6 4 6 -3 10 -14 10 -12 0 -21 -2 -21 -4z"/>
<path d="M2640 4020 c0 -5 9 -10 21 -10 11 0 17 5 14 10 -3 6 -13 10 -21 10
-8 0 -14 -4 -14 -10z"/>
<path d="M2230 3920 c0 -5 5 -10 10 -10 6 0 10 5 10 10 0 6 -4 10 -10 10 -5 0
-10 -4 -10 -10z"/>
<path d="M2365 3811 c-7 -12 12 -24 25 -16 11 7 4 25 -10 25 -5 0 -11 -4 -15
-9z"/>
<path d="M8758 5663 c7 -3 16 -2 19 1 4 3 -2 6 -13 5 -11 0 -14 -3 -6 -6z"/>
<path d="M1095 5580 c-3 -5 -1 -10 4 -10 6 0 11 5 11 10 0 6 -2 10 -4 10 -3 0
-8 -4 -11 -10z"/>
<path d="M1165 5530 c-3 -5 -1 -10 4 -10 6 0 11 5 11 10 0 6 -2 10 -4 10 -3 0
-8 -4 -11 -10z"/>
<path d="M1215 5000 c3 -5 10 -10 16 -10 5 0 9 5 9 10 0 6 -7 10 -16 10 -8 0
-12 -4 -9 -10z"/>
<path d="M1025 5070 c-3 -5 -1 -10 4 -10 6 0 11 5 11 10 0 6 -2 10 -4 10 -3 0
-8 -4 -11 -10z"/>
<path d="M3290 4560 c0 -5 5 -10 11 -10 5 0 7 5 4 10 -3 6 -8 10 -11 10 -2 0
-4 -4 -4 -10z"/>
<path d="M1500 4400 c-8 -5 -11 -12 -7 -16 4 -4 15 0 24 9 18 18 8 23 -17 7z"/>
<path d="M5917 7533 c-14 -13 -7 -25 8 -13 8 6 20 8 26 4 8 -4 9 -3 5 4 -8 13
-29 16 -39 5z"/>
<path d="M7050 6956 c-63 -22 -131 -47 -150 -55 -19 -8 -39 -13 -45 -12 -5 1
-4 -3 2 -10 9 -9 10 -16 2 -26 -9 -10 -8 -13 5 -13 9 0 16 -4 16 -10 0 -5 -11
-10 -25 -10 -14 0 -25 -3 -25 -8 0 -4 12 -7 28 -7 15 0 28 -4 29 -10 3 -11 -2
-12 -71 -14 -27 0 -46 -4 -43 -8 4 -4 39 -6 77 -5 57 1 70 -1 70 -14 0 -10 -7
-14 -22 -12 -11 2 -23 -2 -25 -9 -4 -12 35 -12 55 1 8 5 12 0 12 -13 0 -12 3
-21 8 -22 50 -5 61 -3 65 13 3 12 11 16 21 12 9 -3 16 -2 16 4 0 6 11 9 25 7
14 -1 25 1 25 6 0 5 8 5 17 2 12 -5 15 -2 10 10 -4 12 -2 14 10 10 12 -5 15
-2 11 8 -5 12 1 14 23 11 22 -3 29 0 29 12 0 10 6 13 15 10 8 -4 15 -1 15 5 0
6 6 11 14 11 20 0 27 39 11 69 -21 40 -74 111 -83 110 -4 -1 -59 -20 -122 -43z"/>
<path d="M7305 6970 c3 -5 8 -10 11 -10 2 0 4 5 4 10 0 6 -5 10 -11 10 -5 0
-7 -4 -4 -10z"/>
<path d="M7400 6972 c0 -4 9 -8 20 -9 11 -1 20 2 20 8 0 5 -9 9 -20 9 -11 0
-20 -4 -20 -8z"/>
<path d="M7375 6941 c-3 -5 2 -11 10 -15 8 -3 17 -1 20 3 3 5 -2 11 -10 15 -8
3 -17 1 -20 -3z"/>
<path d="M7328 6933 c7 -3 16 -2 19 1 4 3 -2 6 -13 5 -11 0 -14 -3 -6 -6z"/>
<path d="M7435 6930 c27 -12 35 -12 35 0 0 6 -12 10 -27 9 -25 0 -26 -1 -8 -9z"/>
<path d="M7398 6893 c6 -2 18 -2 25 0 6 3 1 5 -13 5 -14 0 -19 -2 -12 -5z"/>
<path d="M8270 6826 c0 -22 3 -27 11 -19 8 8 8 16 0 30 -9 16 -10 14 -11 -11z"/>
<path d="M6768 6803 c7 -3 16 -2 19 1 4 3 -2 6 -13 5 -11 0 -14 -3 -6 -6z"/>
<path d="M7507 6798 c-4 -13 -1 -16 15 -13 11 3 23 7 27 11 3 4 -2 4 -11 1 -9
-3 -18 -1 -21 6 -2 6 -6 4 -10 -5z"/>
<path d="M6730 6766 c7 -7 13 -7 20 0 6 6 3 10 -10 10 -13 0 -16 -4 -10 -10z"/>
<path d="M6618 6763 c7 -3 16 -2 19 1 4 3 -2 6 -13 5 -11 0 -14 -3 -6 -6z"/>
<path d="M6678 6763 c7 -3 16 -2 19 1 4 3 -2 6 -13 5 -11 0 -14 -3 -6 -6z"/>
<path d="M7490 6754 c0 -8 5 -12 10 -9 6 4 8 11 5 16 -9 14 -15 11 -15 -7z"/>
<path d="M8285 6745 c4 -16 11 -34 16 -39 15 -16 10 16 -7 44 l-15 25 6 -30z"/>
<path d="M7420 6750 c0 -5 4 -10 9 -10 6 0 13 5 16 10 3 6 -1 10 -9 10 -9 0
-16 -4 -16 -10z"/>
<path d="M6766 6743 c-1 -1 -34 -3 -74 -4 -40 -1 -70 -4 -67 -7 8 -8 214 -9
228 0 6 4 8 8 2 9 -30 2 -87 4 -89 2z"/>
<path d="M7390 6710 c0 -5 5 -10 10 -10 6 0 10 5 10 10 0 6 -4 10 -10 10 -5 0
-10 -4 -10 -10z"/>
<path d="M7447 6713 c-12 -11 -8 -23 8 -23 8 0 15 7 15 15 0 16 -12 20 -23 8z"/>
<path d="M7506 6712 c-3 -6 -1 -14 5 -17 15 -10 25 3 12 16 -7 7 -13 7 -17 1z"/>
<path d="M6648 6702 c-75 -6 -36 -17 54 -15 125 2 122 2 115 9 -7 7 -111 11
-169 6z"/>
<path d="M6840 6700 c-9 -6 -10 -10 -3 -10 6 0 15 5 18 10 8 12 4 12 -15 0z"/>
<path d="M6555 6690 c-3 -5 -2 -10 4 -10 5 0 13 5 16 10 3 6 2 10 -4 10 -5 0
-13 -4 -16 -10z"/>
<path d="M6498 6683 c7 -3 16 -2 19 1 4 3 -2 6 -13 5 -11 0 -14 -3 -6 -6z"/>
<path d="M7262 6676 c-12 -6 -20 -17 -17 -24 3 -9 0 -10 -15 -2 -13 7 -21 7
-25 0 -4 -6 -11 -8 -16 -5 -5 4 -9 -1 -9 -10 0 -12 -6 -15 -21 -10 -15 5 -22
2 -26 -13 -5 -20 -46 -38 -62 -28 -12 8 -32 -41 -25 -59 4 -8 -2 -27 -12 -43
-12 -18 -13 -23 -3 -15 10 8 20 9 29 3 13 -8 13 -13 -1 -39 -16 -28 -9 -35 17
-18 7 4 14 -1 17 -13 3 -11 2 -20 -3 -20 -4 0 -11 -7 -14 -16 -5 -13 -2 -15
14 -11 24 6 41 -20 21 -33 -8 -4 -1 -10 19 -14 26 -5 54 5 149 50 64 30 130
65 147 76 29 20 30 23 18 47 -12 23 -12 27 3 32 14 5 13 7 -6 12 -17 4 -21 10
-16 26 4 13 0 23 -10 29 -19 10 -12 54 11 73 19 16 18 25 -5 25 -11 0 -19 -3
-19 -6 2 -21 -3 -40 -11 -40 -5 0 -12 8 -14 18 -4 16 -5 16 -6 0 -1 -24 -7
-23 -41 12 -32 33 -34 33 -68 16z"/>
<path d="M6635 6661 c-12 -11 -3 -16 29 -16 48 0 55 12 11 17 -19 2 -38 2 -40
-1z"/>
<path d="M7469 6660 c-1 -8 -1 -18 0 -22 0 -4 -8 -10 -19 -13 -11 -4 -20 -15
-20 -26 0 -26 5 -24 36 16 20 27 24 39 16 47 -9 9 -12 8 -13 -2z"/>
<path d="M6410 6650 c-9 -6 -10 -10 -3 -10 6 0 15 5 18 10 8 12 4 12 -15 0z"/>
<path d="M6466 6651 c-6 -9 82 -6 92 3 3 3 -15 6 -41 6 -25 0 -48 -4 -51 -9z"/>
<path d="M6570 6651 c0 -4 11 -6 25 -3 14 2 25 6 25 8 0 2 -11 4 -25 4 -14 0
-25 -4 -25 -9z"/>
<path d="M6740 6649 c0 -5 5 -7 10 -4 6 3 10 8 10 11 0 2 -4 4 -10 4 -5 0 -10
-5 -10 -11z"/>
<path d="M6544 6619 c-9 -15 -2 -18 20 -9 17 6 18 7 3 13 -9 3 -19 2 -23 -4z"/>
<path d="M6600 6615 c-14 -16 -3 -20 19 -6 8 5 9 11 3 15 -5 3 -15 -1 -22 -9z"/>
<path d="M6420 6611 c0 -9 89 -5 98 4 3 3 -18 5 -46 5 -29 0 -52 -4 -52 -9z"/>
<path d="M7485 6588 c-8 -18 -14 -28 -15 -23 0 11 -20 -15 -20 -27 0 -18 17
-5 43 31 30 43 32 51 17 51 -6 0 -17 -15 -25 -32z"/>
<path d="M8272 6600 c0 -14 2 -19 5 -12 2 6 2 18 0 25 -3 6 -5 1 -5 -13z"/>
<path d="M7536 6570 c-14 -22 -23 -40 -19 -40 11 1 65 80 54 80 -4 0 -20 -18
-35 -40z"/>
<path d="M6335 6570 c-3 -6 1 -7 9 -4 18 7 21 14 7 14 -6 0 -13 -4 -16 -10z"/>
<path d="M6390 6571 c0 -5 9 -7 20 -4 11 3 20 7 20 9 0 2 -9 4 -20 4 -11 0
-20 -4 -20 -9z"/>
<path d="M6445 6570 c-7 -12 2 -12 30 0 19 8 19 9 -2 9 -12 1 -25 -3 -28 -9z"/>
<path d="M6500 6564 c0 -14 3 -15 18 -3 9 7 19 15 21 16 2 2 -5 3 -17 3 -14 0
-22 -6 -22 -16z"/>
<path d="M6560 6569 c0 -5 5 -7 10 -4 6 3 10 8 10 11 0 2 -4 4 -10 4 -5 0 -10
-5 -10 -11z"/>
<path d="M7023 6565 c0 -8 4 -15 9 -15 4 0 8 4 8 9 0 6 -4 12 -8 15 -5 3 -9
-1 -9 -9z"/>
<path d="M7630 6540 c0 -5 5 -10 10 -10 6 0 10 5 10 10 0 6 -4 10 -10 10 -5 0
-10 -4 -10 -10z"/>
<path d="M6240 6530 c0 -5 7 -7 15 -4 8 4 15 8 15 10 0 2 -7 4 -15 4 -8 0 -15
-4 -15 -10z"/>
<path d="M6295 6530 c-7 -12 2 -12 30 0 19 8 19 9 -2 9 -12 1 -25 -3 -28 -9z"/>
<path d="M6360 6530 c0 -5 7 -7 15 -4 8 4 15 8 15 10 0 2 -7 4 -15 4 -8 0 -15
-4 -15 -10z"/>
<path d="M6410 6529 c0 -5 5 -7 10 -4 6 3 10 8 10 11 0 2 -4 4 -10 4 -5 0 -10
-5 -10 -11z"/>
<path d="M6470 6523 c0 -10 4 -14 8 -8 4 6 11 13 16 18 5 4 2 7 -7 7 -10 0
-17 -8 -17 -17z"/>
<path d="M6530 6529 c0 -5 5 -7 10 -4 6 3 10 8 10 11 0 2 -4 4 -10 4 -5 0 -10
-5 -10 -11z"/>
<path d="M6155 6490 c-3 -6 1 -7 9 -4 18 7 21 14 7 14 -6 0 -13 -4 -16 -10z"/>
<path d="M6205 6490 c-8 -13 5 -13 25 0 13 8 13 10 -2 10 -9 0 -20 -4 -23 -10z"/>
<path d="M6260 6483 c0 -10 4 -14 8 -8 4 6 11 13 16 18 5 4 2 7 -7 7 -10 0
-17 -8 -17 -17z"/>
<path d="M6320 6489 c0 -5 5 -7 10 -4 6 3 10 8 10 11 0 2 -4 4 -10 4 -5 0 -10
-5 -10 -11z"/>
<path d="M6376 6484 c-5 -14 -4 -15 9 -4 17 14 19 20 6 20 -5 0 -12 -7 -15
-16z"/>
<path d="M6436 6483 c-6 -14 -5 -15 5 -6 7 7 10 15 7 18 -3 3 -9 -2 -12 -12z"/>
<path d="M7475 6489 c-4 -6 -5 -12 -2 -15 2 -3 7 2 10 11 7 17 1 20 -8 4z"/>
<path d="M6048 6483 c7 -3 16 -2 19 1 4 3 -2 6 -13 5 -11 0 -14 -3 -6 -6z"/>
<path d="M6975 6480 c-3 -5 -2 -10 4 -10 5 0 13 5 16 10 3 6 2 10 -4 10 -5 0
-13 -4 -16 -10z"/>
<path d="M6065 6450 c-3 -5 -1 -10 4 -10 6 0 11 5 11 10 0 6 -2 10 -4 10 -3 0
-8 -4 -11 -10z"/>
<path d="M6115 6450 c-8 -13 5 -13 25 0 13 8 13 10 -2 10 -9 0 -20 -4 -23 -10z"/>
<path d="M6170 6444 c0 -14 3 -14 15 -4 8 7 15 14 15 16 0 2 -7 4 -15 4 -8 0
-15 -7 -15 -16z"/>
<path d="M6225 6450 c-8 -13 5 -13 25 0 13 8 13 10 -2 10 -9 0 -20 -4 -23 -10z"/>
<path d="M6286 6443 c-6 -14 -5 -15 5 -6 7 7 10 15 7 18 -3 3 -9 -2 -12 -12z"/>
<path d="M7657 6428 c-44 -49 -18 -108 27 -62 19 18 19 20 5 45 -7 15 -7 24 2
35 23 28 -7 12 -34 -18z m26 -32 c3 -12 -30 -32 -39 -24 -11 12 5 40 21 36 9
-2 17 -7 18 -12z"/>
<path d="M7000 6428 c0 -4 4 -8 9 -8 6 0 12 4 15 8 3 5 -1 9 -9 9 -8 0 -15 -4
-15 -9z"/>
<path d="M6025 6411 c-3 -6 4 -9 15 -8 11 1 20 5 20 9 0 11 -28 10 -35 -1z"/>
<path d="M6076 6411 c-3 -5 5 -8 19 -8 14 0 22 3 19 8 -3 5 -11 9 -19 9 -8 0
-16 -4 -19 -9z"/>
<path d="M6135 6409 c-11 -17 1 -21 15 -4 8 9 8 15 2 15 -6 0 -14 -5 -17 -11z"/>
<path d="M6196 6403 c-6 -14 -5 -15 5 -6 7 7 10 15 7 18 -3 3 -9 -2 -12 -12z"/>
<path d="M5968 6403 c7 -3 16 -2 19 1 4 3 -2 6 -13 5 -11 0 -14 -3 -6 -6z"/>
<path d="M5695 6361 c-167 -93 -208 -119 -211 -134 -1 -9 1 -17 5 -17 4 0 13
-16 20 -35 25 -71 29 -71 160 -5 65 33 122 60 127 60 6 0 20 9 32 20 17 17 20
25 12 40 -15 27 -13 30 18 31 l27 1 -29 7 c-49 10 -43 29 11 34 l48 3 -57 2
c-56 2 -77 15 -40 25 9 3 1 5 -18 5 -23 1 -59 -12 -105 -37z"/>
<path d="M6905 6380 c-3 -5 -2 -10 4 -10 5 0 13 5 16 10 3 6 2 10 -4 10 -5 0
-13 -4 -16 -10z"/>
<path d="M6970 6380 c-9 -6 -10 -10 -3 -10 6 0 15 5 18 10 8 12 4 12 -15 0z"/>
<path d="M6047 6373 c-4 -3 -7 -11 -7 -17 0 -6 5 -5 12 2 6 6 9 14 7 17 -3 3
-9 2 -12 -2z"/>
<path d="M6105 6370 c-3 -5 -1 -10 4 -10 6 0 11 5 11 10 0 6 -2 10 -4 10 -3 0
-8 -4 -11 -10z"/>
<path d="M7020 6370 c0 -5 4 -10 9 -10 6 0 13 5 16 10 3 6 -1 10 -9 10 -9 0
-16 -4 -16 -10z"/>
<path d="M5933 6363 c9 -2 23 -2 30 0 6 3 -1 5 -18 5 -16 0 -22 -2 -12 -5z"/>
<path d="M6881 6341 c-8 -5 -9 -11 -3 -15 5 -3 12 1 16 9 6 17 6 18 -13 6z"/>
<path d="M6930 6330 c0 -5 4 -10 9 -10 6 0 13 5 16 10 3 6 -1 10 -9 10 -9 0
-16 -4 -16 -10z"/>
<path d="M7550 6328 c0 -10 5 -18 11 -18 8 0 8 -5 -1 -15 -7 -8 -19 -15 -27
-15 -8 0 -11 -5 -8 -10 4 -6 16 -8 27 -4 11 3 33 7 49 8 16 1 32 6 36 10 4 5
-4 6 -19 2 -15 -3 -30 -2 -33 4 -10 16 23 24 115 29 15 1 20 4 13 9 -14 9
-101 7 -127 -4 -11 -4 -21 -2 -27 7 -7 11 -9 11 -9 -3z"/>
<path d="M7738 6333 c7 -3 16 -2 19 1 4 3 -2 6 -13 5 -11 0 -14 -3 -6 -6z"/>
<path d="M5898 6323 c6 -2 18 -2 25 0 6 3 1 5 -13 5 -14 0 -19 -2 -12 -5z"/>
<path d="M6985 6320 c-3 -5 -2 -10 4 -10 5 0 13 5 16 10 3 6 2 10 -4 10 -5 0
-13 -4 -16 -10z"/>
<path d="M7500 6316 c0 -2 9 -6 20 -9 11 -3 18 -1 14 4 -5 9 -34 13 -34 5z"/>
<path d="M6725 6300 c3 -5 8 -10 11 -10 2 0 4 5 4 10 0 6 -5 10 -11 10 -5 0
-7 -4 -4 -10z"/>
<path d="M7748 6303 c7 -3 16 -2 19 1 4 3 -2 6 -13 5 -11 0 -14 -3 -6 -6z"/>
<path d="M6775 6290 c-3 -6 1 -7 9 -4 18 7 21 14 7 14 -6 0 -13 -4 -16 -10z"/>
<path d="M6840 6290 c0 -5 5 -10 10 -10 6 0 10 5 10 10 0 6 -4 10 -10 10 -5 0
-10 -4 -10 -10z"/>
<path d="M7665 6290 l-20 -9 20 1 c11 0 31 4 45 8 l25 8 -25 0 c-14 0 -34 -3
-45 -8z"/>
<path d="M6710 6269 c0 -5 -4 -8 -9 -5 -5 3 -12 -1 -15 -9 -4 -13 -2 -14 14
-5 18 10 28 30 15 30 -3 0 -5 -5 -5 -11z"/>
<path d="M7668 6253 c7 -3 16 -2 19 1 4 3 -2 6 -13 5 -11 0 -14 -3 -6 -6z"/>
<path d="M6748 6243 c7 -3 16 -2 19 1 4 3 -2 6 -13 5 -11 0 -14 -3 -6 -6z"/>
<path d="M6805 6240 c-3 -5 -2 -10 4 -10 5 0 13 5 16 10 3 6 2 10 -4 10 -5 0
-13 -4 -16 -10z"/>
<path d="M6710 6200 c0 -5 5 -10 11 -10 5 0 7 5 4 10 -3 6 -8 10 -11 10 -2 0
-4 -4 -4 -10z"/>
<path d="M5360 6129 c0 -5 5 -7 10 -4 6 3 10 8 10 11 0 2 -4 4 -10 4 -5 0 -10
-5 -10 -11z"/>
<path d="M7070 6085 c-11 -13 -10 -14 4 -9 9 3 16 10 16 15 0 13 -6 11 -20 -6z"/>
<path d="M6973 6038 c-31 -40 -27 -50 5 -13 12 14 18 25 13 25 -5 0 -13 -6
-18 -12z"/>
<path d="M5950 5980 c-25 -12 -123 -57 -157 -71 -18 -8 -33 -17 -33 -20 0 -4
-15 -10 -34 -13 -48 -9 -63 -29 -46 -64 49 -103 34 -98 135 -52 33 15 94 39
135 55 41 15 77 29 79 31 9 8 -23 96 -39 107 -10 7 -18 16 -18 20 -1 14 -6 15
-22 7z"/>
<path d="M6761 5974 c0 -11 3 -14 6 -6 3 7 2 16 -1 19 -3 4 -6 -2 -5 -13z"/>
<path d="M6805 5970 c-3 -5 -1 -10 4 -10 6 0 11 5 11 10 0 6 -2 10 -4 10 -3 0
-8 -4 -11 -10z"/>
<path d="M6606 5868 c-14 -18 -23 -34 -20 -37 4 -5 27 21 45 52 16 28 2 20
-25 -15z"/>
<path d="M6670 5879 c0 -5 5 -7 10 -4 6 3 10 8 10 11 0 2 -4 4 -10 4 -5 0 -10
-5 -10 -11z"/>
<path d="M5578 5793 c7 -3 16 -2 19 1 4 3 -2 6 -13 5 -11 0 -14 -3 -6 -6z"/>
<path d="M5630 5790 c0 -5 4 -10 9 -10 6 0 13 5 16 10 3 6 -1 10 -9 10 -9 0
-16 -4 -16 -10z"/>
<path d="M5530 5750 c0 -5 4 -10 9 -10 6 0 13 5 16 10 3 6 -1 10 -9 10 -9 0
-16 -4 -16 -10z"/>
<path d="M5590 5740 c0 -5 7 -10 15 -10 8 0 15 5 15 10 0 6 -7 10 -15 10 -8 0
-15 -4 -15 -10z"/>
<path d="M5655 5740 c-3 -5 1 -10 9 -10 8 0 18 5 21 10 3 6 -1 10 -9 10 -8 0
-18 -4 -21 -10z"/>
<path d="M5490 5700 c0 -5 7 -10 15 -10 8 0 15 5 15 10 0 6 -7 10 -15 10 -8 0
-15 -4 -15 -10z"/>
<path d="M5560 5700 c0 -5 4 -10 9 -10 6 0 13 5 16 10 3 6 -1 10 -9 10 -9 0
-16 -4 -16 -10z"/>
<path d="M8883 5206 c-24 -11 -39 -36 -23 -36 6 0 10 5 10 11 0 7 9 9 23 5 18
-4 23 -1 24 14 2 22 -2 23 -34 6z"/>
<path d="M8980 5136 c0 -2 7 -7 16 -10 8 -3 12 -2 9 4 -6 10 -25 14 -25 6z"/>
<path d="M9185 5120 c-3 -5 -16 -10 -28 -11 -21 0 -21 -1 2 -10 23 -9 40 1 41
24 0 10 -8 9 -15 -3z"/>
<path d="M9361 5087 c-11 -15 -5 -27 14 -27 6 0 11 9 12 20 2 23 -10 26 -26 7z"/>
<path d="M9660 5079 c0 -5 5 -7 10 -4 6 3 10 8 10 11 0 2 -4 4 -10 4 -5 0 -10
-5 -10 -11z"/>
<path d="M9321 5066 c-9 -10 -8 -15 2 -19 8 -3 13 3 13 14 0 23 0 23 -15 5z"/>
<path d="M9695 5070 c-3 -5 1 -10 10 -10 9 0 13 5 10 10 -3 6 -8 10 -10 10 -2
0 -7 -4 -10 -10z"/>
<path d="M9355 5029 c-4 -6 -5 -12 -2 -15 2 -3 7 2 10 11 7 17 1 20 -8 4z"/>
<path d="M9472 5028 c-16 -16 -15 -28 3 -28 8 0 15 9 15 20 0 23 -2 24 -18 8z"/>
<path d="M9963 5033 c-22 -8 -14 -21 12 -19 14 0 25 7 25 14 0 12 -15 15 -37
5z"/>
<path d="M9920 5020 c-13 -8 -12 -10 3 -10 9 0 17 5 17 10 0 12 -1 12 -20 0z"/>
<path d="M9420 5005 c-8 -9 -8 -15 -2 -15 12 0 26 19 19 26 -2 2 -10 -2 -17
-11z"/>
<path d="M9806 5012 c-2 -4 -1 -14 5 -22 7 -12 9 -10 9 8 0 23 -5 28 -14 14z"/>
<path d="M9856 4998 c3 -4 11 -5 19 -1 21 7 19 12 -4 10 -11 0 -18 -5 -15 -9z"/>
<path d="M9500 4981 c0 -5 -10 -7 -22 -4 -13 3 -21 3 -18 0 3 -3 21 -9 39 -12
30 -5 33 -4 21 10 -14 17 -20 19 -20 6z"/>
<path d="M9960 4979 c0 -5 5 -7 10 -4 6 3 10 8 10 11 0 2 -4 4 -10 4 -5 0 -10
-5 -10 -11z"/>
<path d="M9926 4916 c3 -8 12 -12 20 -9 17 6 9 23 -11 23 -8 0 -12 -6 -9 -14z"/>
<path d="M8796 4907 c3 -10 9 -15 12 -12 3 3 0 11 -7 18 -10 9 -11 8 -5 -6z"/>
<path d="M9895 4910 c3 -5 8 -10 11 -10 2 0 4 5 4 10 0 6 -5 10 -11 10 -5 0
-7 -4 -4 -10z"/>
<path d="M8745 4900 c-18 -8 -17 -9 8 -9 15 -1 27 4 27 9 0 12 -8 12 -35 0z"/>
<path d="M9824 4898 c-4 -7 -4 -10 1 -6 4 4 15 2 23 -5 12 -10 14 -9 11 2 -7
20 -26 25 -35 9z"/>
<path d="M9974 4881 c0 -11 5 -17 13 -14 10 4 11 9 2 19 -15 18 -15 18 -15 -5z"/>
<path d="M8820 4880 c-20 -12 -10 -19 14 -10 11 3 15 9 10 13 -6 3 -16 2 -24
-3z"/>
<path d="M9912 4869 c2 -7 10 -15 17 -17 8 -3 12 1 9 9 -2 7 -10 15 -17 17 -8
3 -12 -1 -9 -9z"/>
<path d="M8900 4856 c0 -9 5 -16 10 -16 6 0 10 4 10 9 0 6 -4 13 -10 16 -5 3
-10 -1 -10 -9z"/>
<path d="M9864 4858 c-4 -7 -4 -10 1 -6 4 4 15 2 24 -5 14 -11 14 -10 2 6 -16
20 -18 21 -27 5z"/>
<path d="M8955 4830 c-17 -8 -16 -8 8 -7 15 1 27 5 27 9 0 10 -9 9 -35 -2z"/>
<path d="M9948 4833 c7 -3 16 -2 19 1 4 3 -2 6 -13 5 -11 0 -14 -3 -6 -6z"/>
<path d="M9049 4807 c7 -7 14 -8 21 -1 6 6 2 10 -12 11 -16 2 -18 -1 -9 -10z"/>
<path d="M9856 4811 c-3 -5 4 -11 16 -14 25 -7 33 -3 23 12 -8 13 -32 14 -39
2z"/>
<path d="M9810 4792 c0 -5 7 -9 15 -9 8 0 12 4 9 9 -3 4 -9 8 -15 8 -5 0 -9
-4 -9 -8z"/>
<path d="M9085 4780 c-3 -5 -1 -10 4 -10 6 0 11 5 11 10 0 6 -2 10 -4 10 -3 0
-8 -4 -11 -10z"/>
<path d="M9904 4775 c-15 -11 -16 -14 -4 -15 21 0 44 16 33 23 -6 4 -19 0 -29
-8z"/>
</g>
</svg>
